<svg xmlns="http://www.w3.org/2000/svg" width="514" height="514" viewBox="0 0 514 514" style="width: 100%; height: 100%;"><defs><linearGradient id="linearGradient-1" x1="37.5%" x2="61.932%" y1="0%" y2="97.726%"><stop stop-color="#EC008C" offset="0%"></stop><stop stop-color="#FFF200" offset="100%"></stop></linearGradient></defs><g fill="none" stroke="none"><g transform="translate(-644 -162)"><g transform="translate(644 162)"><path class="fill-[#E3E3E3] dark:fill-[#222222]" d="M0 513.9743L514 513.9743 514 0 0 0z"></path><path fill="#AEACAC" d="M258.285 425.763c-136.26 0-246.72-8.387-246.72-18.733 0-3.116 10.027-6.056 27.757-8.641a18.739 18.739 0 0011.666 4.053h412.023c4.588 0 8.785-1.641 12.05-4.364 19.094 2.66 29.944 5.71 29.944 8.952 0 10.346-110.46 18.733-246.72 18.733"></path><path fill="#CECCCC" d="M50.988 402.442h412.023c6.978 0 13.06-3.799 16.324-9.434H34.665c3.264 5.635 9.343 9.434 16.323 9.434"></path><path fill="#8BBFC2" d="M279.753 387.088h-45.506a8.034 8.034 0 01-6.647-3.514h58.8a8.035 8.035 0 01-6.647 3.514"></path><path fill="#DDD" d="M286.4 383.574a8.035 8.035 0 01-6.647 3.514h-45.506a8.034 8.034 0 01-6.647-3.514H32.12c0 3.44.936 6.656 2.545 9.434h444.67a18.743 18.743 0 002.544-9.434H286.4"></path><path fill="#A0A0A0" d="M234.247 387.088h45.506a8.035 8.035 0 006.647-3.514h-58.8a8.034 8.034 0 006.647 3.514"></path><path fill="#141313" d="M434.214 375.806a7.77 7.77 0 01-7.77 7.768H87.556a7.77 7.77 0 01-7.77-7.768v-220.5a7.769 7.769 0 017.77-7.768h338.888a7.769 7.769 0 017.77 7.768v220.5"></path><path fill="#5B5A5A" d="M372.819192 383.574213L307.274768 383.574213 179.518783 147.537703 203.947918 147.537703 372.819192 383.574213"></path><path fill="#434242" d="M426.444 383.574h-33.255L225.54 147.538h125.246l83.428 156.426v71.842a7.77 7.77 0 01-7.77 7.768M257 153.456a2.496 2.496 0 100 4.995 2.498 2.498 0 000-4.995"></path><path fill="#000" d="M259.497 155.954a2.498 2.498 0 11-4.995-.001 2.498 2.498 0 014.995 0"></path><path fill="#333" d="M257 156.575a.62.62 0 110-1.241.62.62 0 010 1.24"></path><path fill="#FFF" d="M99.2461183 365.64675L414.75431 365.64675 414.75431 165.462597 99.2461183 165.462597z"></path><path fill="#DC5695" d="M280.13 341.381667L301.546667 341.381667 301.546667 305.401667 280.13 305.401667z"></path><path fill="#CEC4B2" d="M301.546667 341.381667L323.82 341.381667 323.82 285.698333 301.546667 285.698333z"></path><path fill="#24546C" d="M323.82 341.381667L346.093333 341.381667 346.093333 271.991667 323.82 271.991667z"></path><path fill="#DC5695" d="M346.093333 341.381667L368.366667 341.381667 368.366667 305.401667 346.093333 305.401667z"></path><path fill="#24546C" d="M368.366667 341.381667L389.783333 341.381667 389.783333 249.718333 368.366667 249.718333z"></path><path fill="#24546C" d="M258.692 222.835l13.833-37.541a39.931 39.931 0 00-13.833-2.458c-22.089 0-39.998 17.908-39.998 39.999 0 22.09 17.91 39.998 39.998 39.998 22.091 0 40-17.908 40-39.998 0-2.281-.2-4.514-.569-6.69l-39.43 6.69"></path><path fill="#EC509A" d="M306.443 209.295c-2.403-14.265-12.35-25.968-25.6-30.852l-13.83 37.541 39.43-6.69"></path><path fill="#373737" d="M232.657 341.382H125.622c-.622 0-.977.292-.977-.33v-73.797c0-.623.02-1.127.642-1.127s.643.504.643 1.127v71.985h106.727c.622 0 1.125.447 1.125 1.07s-.503 1.072-1.125 1.072"></path><path fill="#DC5695" d="M184.910643 352.711512L176.069843 327.65701 167.7953 347.467855 151.451813 307.028905 131.652533 351.57343 128.94718 350.371955 151.58117 299.447833 167.839847 339.679042 176.303713 319.418447 184.73417 343.314735 204.71592 279.087008 213.814577 303.081813 226.360032 269.052443 229.137773 270.077445 213.853983 311.5354 204.993052 288.165105 184.910643 352.711512"></path><path fill="#9B6D5C" d="M74.53 374.363333L80.0983333 374.363333 80.0983333 367.081667 74.53 367.081667z"></path><path fill="#9B6D5C" d="M53.97 374.363333L59.5383333 374.363333 59.5383333 367.081667 53.97 367.081667z"></path><path fill="#FFF" d="M71.96 383.786667L90.8066667 383.786667 90.8066667 380.788333 71.96 380.788333z"></path><path fill="#373737" d="M81.383 373.927v-2.723c-1.713.108-2.515 1.426-2.515 2.617l-4.381-.084-2.527 7.051h18.847v-1.39l-9.424-5.47"></path><path fill="#FFF" d="M51.4 383.786667L61.68 383.786667 61.68 380.788333 51.4 380.788333z"></path><path fill="#373737" d="M54.012 373.935h.49c0-1.713 1.02-2.724 2.495-2.724 1.461 0 2.492 1.01 2.496 2.724h.234l1.953 6.853H51.393l2.619-6.853"></path><path fill="#2B72B6" d="M48.83 292.98v11.442c.428 2.055 2.103 4.278 3.649 5.486l.154 57.174h8.113l-.124-56.539 12.466.063.046 56.476h7.393V292.98H48.83"></path><path fill="#80B3DD" d="M72.3883333 367.51L81.8116667 367.51 81.8116667 363.655 72.3883333 363.655z"></path><g fill="url(#linearGradient-1)" transform="translate(349 33)"><path d="M78.1875 112.9375L139 112.9375 43.4375 278 60.8125 165.0625 0 165.0625 95.5625 0z"></path></g><path fill="#80B3DD" d="M52.2566667 367.51L61.68 367.51 61.68 363.655 52.2566667 363.655z"></path><path fill="#9B6D5C" d="M117.23 237.404c.068-1.183-1.461-1.206-1.732-.357-.047-1.177-1.3-1.174-1.617-.523.358-4.622-.324-4.786-.846-4.839-1.438-.144-1.51 5.29-1.554 6.772-.163 4.719-.72 11.786-2.16 16.908-1.39 4.94-3.976 10.828-8.4 10.828-1.638 0-6.623 0-9.455-7.915-1.649-4.608-1.671-9.403-1.671-9.45l-7.382-.016c-.002.532.04 13.112 7.027 20.12 3.071 3.082 6.933 4.643 11.48 4.643 5.013 0 11.778-2.833 15.54-16.332 1.993-7.15 2.388-18.178 2.388-18.178.212-2.242-1.052-2.389-1.618-1.661"></path><path fill="#9B6D5C" d="M35.75 307.732l7.11-.69c-.015-.15-1.453-15.179-1.104-27.892.296-10.804 3.872-28.742 3.908-28.922l-7.004-1.405c-.152.76-3.732 18.714-4.045 30.13-.362 13.167 1.073 28.148 1.135 28.78"></path><path fill="#2E2D2D" d="M92.32 251.69c-.849-10.482-11.19-22.841-27.733-22.841s-26.985 12.36-27.835 22.841l9.508 3.845v48.582h36.408v-48.582l9.653-3.845z"></path><path fill="#9B6D5C" d="M71.303 229.562c-.935-.222-1.468-.293-2.62-.455l-.603-6.284-6.674-.243-.255 6.453c-1.37.137-2.109.254-3.202.52-.028.333 0 .62.013.963.163 4.104 3.281 7.282 6.963 7.1 3.682-.183 6.534-3.658 6.37-7.762-.002-.067.012-.225.008-.292"></path><path fill="#9B6D5C" d="M89.218 205.65c-.013 2.88-2.352 5.204-5.225 5.19-2.873-.013-5.19-2.358-5.178-5.238a5.208 5.208 0 015.226-5.19 5.208 5.208 0 015.177 5.238"></path><path fill="#9B6D5C" d="M84.716 205.36c.007 11.227-8.877 20.335-19.72 20.342-10.845.007-19.74-9.089-19.748-20.316l.235-5.534c-.008-11.227 8.638-20.335 19.481-20.342 10.844-.007 19.502 9.088 19.51 20.316l.242 5.534"></path><path fill="#9B6D5C" d="M50.754 206.465c-.014 2.88-2.353 5.203-5.226 5.19a5.208 5.208 0 01-5.177-5.238 5.208 5.208 0 015.225-5.19 5.208 5.208 0 015.178 5.238"></path><path fill="#77564D" d="M65.073 225.702c-10.844.007-19.777-9-19.777-20.227 0 0-.047-1.288-.049-1.42l2.16.141s.495 10.189 7.605 10.028c2.509-.056 5.8-3.385 10.151-3.447 4.555-.066 7.457 3.255 10.104 3.25 7.11-.012 7.273-10.32 7.273-10.32l2.145-.164c0 .167.011.34.03.515l.04 1.302c.007 11.227-8.838 20.335-19.682 20.342"></path><path fill="#4F3934" d="M45.364 196.127c.394-6.198 5.441-16.919 19.25-17.542 13.756.476 19.454 10.84 19.912 17.034.148 1.995.158 7.924.158 7.924l-2.147.165s.811-18.259-10.176-15.103c-2.441.7-5.397 1.412-7.628 1.452-2.402-.005-4.836-.395-7.284-1.071-11.02-3.04-10.041 15.21-10.042 15.21l-2.16-.14s-.01-5.933.117-7.929"></path><path fill="#FFF" d="M74.276 215.148l-16.807-.314s2.854 5.996 8.29 5.996c5.373 0 8.279-4.48 8.517-5.682"></path><path fill="#000" d="M72.37 208.533c.341 1.236 1.563 1.977 2.732 1.654 1.168-.321 1.838-1.584 1.498-2.82-.341-1.236-1.564-1.977-2.733-1.655-1.168.322-1.838 1.585-1.497 2.821"></path><path fill="#000" d="M54.284 208.533c.34 1.236 1.563 1.977 2.731 1.654 1.169-.321 1.839-1.584 1.498-2.82-.34-1.236-1.564-1.977-2.732-1.655-1.168.322-1.838 1.585-1.497 2.821"></path><g fill="#F7DF1E" transform="translate(54 244)"><path d="M12.336 9.797c.616.985 1.417 1.708 2.835 1.708 1.19 0 1.952-.582 1.952-1.387 0-.964-.782-1.305-2.093-1.866l-.718-.302c-2.074-.864-3.452-1.947-3.452-4.236C10.86 1.605 12.502 0 15.069 0c1.827 0 3.141.622 4.088 2.251l-2.238 1.406c-.493-.865-1.025-1.205-1.85-1.205-.842 0-1.375.522-1.375 1.205 0 .843.534 1.185 1.767 1.707l.718.301C18.621 6.69 20 7.734 20 10.082 20 12.613 17.967 14 15.237 14c-2.669 0-4.393-1.244-5.237-2.875l2.336-1.328zm-10.025.345c.447.765.852 1.411 1.828 1.411.933 0 1.521-.353 1.521-1.724V.5H8.5v9.366C8.5 12.707 6.776 14 4.26 14 1.986 14 .67 12.863 0 11.494l2.311-1.352z"></path></g></g></g></g></svg>
