<svg class="js-circle" xmlns="http://www.w3.org/2000/svg" width="514" height="514" viewBox="0 0 514 514" style="width: 100%; height: 100%;"><path fill="#CFCFCF" d="M0 0h514v514H0V0Z" opacity=".6"></path><path fill="#070707" d="m194 0 32 73.14c.73 1.72 3.02 2.35 5.14 1.45l55.12-23.5c2.12-.9 3.25-3.02 2.52-4.74L268.16 0H194Z" opacity=".1"></path><path fill="#fff" d="M283.78 43.53c.73 1.7-.4 3.78-2.52 4.7L226.13 71.6c-2.12.9-4.42.25-5.14-1.44L191 0h74.18l18.6 43.53Z"></path><path fill="#373737" d="M279 36.58 218.67 62 192 0h71.27L279 36.58Z"></path><path fill="#494949" d="M279 36.58 219 62l18.83-62h25.53L279 36.58Z" opacity=".6"></path><path fill="#616363" d="M256.95 51.39a.62.62 0 0 1-.19.73.71.71 0 0 1-.24.13l-9.5 3.69a.8.8 0 0 1-.56.02.7.7 0 0 1-.41-.35.6.6 0 0 1 .02-.52.7.7 0 0 1 .4-.35l9.52-3.68c.36-.15.8 0 .96.33Z"></path><path fill="#070707" d="M190.12 415.51 89 514h125.87l36.91-35.94a43.6 43.6 0 0 0 11.83-42.18 43.9 43.9 0 0 0-30.83-31.27 44.23 44.23 0 0 0-42.66 10.9Z" opacity=".1"></path><path fill="#9E9EE6" d="M243.84 473.25a43.92 43.92 0 0 0-18.91-73.64 43.81 43.81 0 0 0-42.47 10.93L77 514h125.3l41.54-40.75Z"></path><path fill="#6B6B6B" d="M193.5 478.49a5.25 5.25 0 0 1-7.46-.08l-9.53-9.77a5.32 5.32 0 0 1 .07-7.49l17.92-17.64a5.27 5.27 0 0 1 7.46.08l9.53 9.78a5.3 5.3 0 0 1-.07 7.48L193.5 478.5Z"></path><path fill="#A7ABAF" d="M180.54 466.58a1.5 1.5 0 0 1-1.64.3 1.5 1.5 0 1 1 1.64-.3Zm10 10a1.5 1.5 0 0 1-2.54-1.11 1.5 1.5 0 0 1 2.58-1.01 1.5 1.5 0 0 1-.04 2.12Zm9-29a1.5 1.5 0 0 1-1.64.3 1.5 1.5 0 1 1 1.64-.3Zm10 10a1.5 1.5 0 1 1 .03-2.14 1.52 1.52 0 0 1-.02 2.14Z"></path><path fill="#182420" d="m180.41 431-5.41 5.24s5.6 7.37 7.52 13.42c1.88 5.97-.3 13.17 4.09 18.11l.16.17c4.94 4.4 12.3 2.41 18.32 4.39 6.1 2 13.5 7.67 13.5 7.67l5.41-5.22L180.41 431Z"></path><path fill="#D2F39B" d="M174.84 440.48a5.25 5.25 0 0 1-7.46-.07l-2.87-2.95a5.33 5.33 0 0 1 .08-7.5l10.57-10.44a5.26 5.26 0 0 1 7.46.07l2.88 2.96a5.33 5.33 0 0 1-.08 7.5l-10.58 10.43Zm49 51a5.25 5.25 0 0 1-7.46-.07l-2.87-2.95a5.34 5.34 0 0 1 .07-7.5l10.58-10.44a5.26 5.26 0 0 1 7.46.07l2.88 2.95a5.34 5.34 0 0 1-.08 7.5l-10.58 10.44Z"></path><path fill="#6B6B6B" d="M198.2 466.28a6 6 0 0 1-8.4-8.57 6 6 0 0 1 8.4 8.57Z"></path><path fill="#182420" d="M195.95 464a3.5 3.5 0 1 1-4.98-4.94 3.5 3.5 0 0 1 4.98 4.94Z"></path><path fill="#BDDD7F" d="m164.13 437.73 17.95-17.59 3.33 3.4-17.94 17.6-3.34-3.4ZM213.27 487.88l17.95-17.59 3.33 3.4-17.95 17.6-3.33-3.4Z"></path><path fill="#fff" d="m163 454 13 51.86-32.5-10.3 6 18.44H123l14.12-33.2L163 495.56V454Z"></path><path fill="#070707" d="m358.47 419.12-34.18-15.88a2.6 2.6 0 0 0-3.48 1.3l-30.57 65.86a2.61 2.61 0 0 0 1.3 3.48l34.17 15.88a2.63 2.63 0 0 0 3.48-1.29l30.57-65.88a2.6 2.6 0 0 0-1.3-3.47Z" opacity=".1"></path><path fill="#fff" d="M327.2 483.47a2.63 2.63 0 0 1-3.49 1.3l-34.18-15.89a2.63 2.63 0 0 1-1.29-3.48l30.58-65.87a2.62 2.62 0 0 1 3.47-1.29l34.18 15.88a2.6 2.6 0 0 1 1.3 3.48l-30.58 65.87Z"></path><path fill="#373737" d="m293.14 457.62 24.81-53.44 37.23 17.3-24.81 53.43-37.23-17.3Z"></path><path fill="#494949" d="M330.2 475 293 457.85 355 422l-24.8 53Z" opacity=".6"></path><path fill="#616363" d="M341.93 410.64c-.1.28-.4.43-.67.33l-6-2.88a.56.56 0 0 1-.2-.74.53.53 0 0 1 .68-.32l6 2.87a.56.56 0 0 1 .2.74Z"></path><path fill="#070707" d="m439.41 282.3 28.22 17.26a2.94 2.94 0 0 0 4.06-.98l32.88-53.82a2.96 2.96 0 0 0-.98-4.06l-28.22-17.27a2.95 2.95 0 0 0-4.06.98l-32.88 53.82a2.97 2.97 0 0 0 .98 4.07Z" opacity=".1"></path><path fill="#78C0C3" d="M469.7 293.58a2.95 2.95 0 0 1-4.06.99L437.4 277.3a2.96 2.96 0 0 1-.98-4.06l32.88-53.83a2.97 2.97 0 0 1 4.06-.98l28.22 17.28a2.96 2.96 0 0 1 .98 4.06l-32.88 53.81Z"></path><path fill="#DFDFDF" d="M481.46 233.1a3.52 3.52 0 0 1-5.04 1.32l-4.67-3.08a4.15 4.15 0 0 1-1.21-5.45 3.7 3.7 0 0 1 2.27-1.78 3.43 3.43 0 0 1 2.77.47l4.66 3.08a3.96 3.96 0 0 1 1.66 2.46 4.22 4.22 0 0 1-.44 2.99Z"></path><path fill="#555656" d="M475.63 229.8a2.5 2.5 0 1 1-4.22-2.68 2.5 2.5 0 0 1 4.22 2.68Z"></path><path fill="#303030" d="M474.78 229.28a1.5 1.5 0 0 1-2.06.5 1.5 1.5 0 0 1 .43-2.72 1.5 1.5 0 0 1 1.63 2.22Z"></path><path fill="#202842" d="M473.86 228.52a1 1 0 1 1-1.71-1.04 1 1 0 0 1 1.7 1.04Z"></path><path fill="#555656" d="M478.48 232.85a1.02 1.02 0 0 1-.47-.62 1.02 1.02 0 0 1 .11-.77 1 1 0 0 1 1.4-.31 1 1 0 0 1-1.04 1.7Zm.9-1.47a.7.7 0 0 0-.56-.1.71.71 0 0 0-.55.6.72.72 0 0 0 .36.73.72.72 0 0 0 1.05-.78.72.72 0 0 0-.3-.45Z"></path><path fill="#202842" d="M476.93 230.76a.5.5 0 0 1-.32.23.51.51 0 0 1-.37-.06.49.49 0 0 1-.23-.32.5.5 0 0 1 .06-.37.5.5 0 0 1 .92.15.5.5 0 0 1-.06.37Z"></path><path fill="#070707" d="m112.96 269.33 151.2-170.55 168.8 149.65-151.21 170.54-168.8-149.64Z" opacity=".1"></path><path fill="#D1A278" d="m102.88 269.93 151.2-170.55 168.8 149.65-151.2 170.55-168.8-149.65Z"></path><path fill="#35322F" d="M112.7 269.28 254.63 109.2l158.44 140.47-141.94 160.09L112.7 269.28Z" opacity=".4"></path><path fill="#B58D68" d="m115.53 266.06 136.23-153.65 155.27 137.66L270.8 403.72 115.53 266.06Z"></path><g class="js-peep js-peep--four"><path fill="#070707" d="M177.9 346.85c-10.2-1.71-21.75-10.15-25.17-12.57-7.4-5.24-19.83-11.38-31.33-14l-.66-4.13c-.15-.92-.9-1.71-1.78-1.58L99.06 313c-.88.15-1.32 1.17-1.17 2.08l.1.63c-12.1-.74-23.24.8-29.98 1.9-19.48 3.69-42.23 13.72-42.23 13.72s1.54 17.73 11.51 49.11l-1.92.54a44.84 44.84 0 0 0-3.39-6.37A62.86 62.86 0 0 0 7.57 351L-1 346.72v119.82l9.85-4.2c18.45-7.71 35.02-31.05 32.26-59.54-.15-1.97-.4-3.93-.77-5.87l2.19-.95a535.49 535.49 0 0 0 19.31 46.51s24.36-5.08 42.3-13.57c2.85-1.44 6.55-3.35 10.64-5.76l.13.8c.15.91.9 1.7 1.78 1.57l18.87-6.97c.88-.15 1.32-1.16 1.16-2.08l-.71-4.5c15.5-8.06 35.55-22.4 45.45-25.97 9.85-3.53 10.69-13.13 9.97-19.63-.9-8.25-5.3-18.12-13.53-19.53Z" opacity="0.1"></path><path fill="#fff" d="M30.44 382.24C24.65 364.4 13 352.13 0 345.12v111.85l1.28-.5c21.53-9 40.49-39.33 29.16-74.23Z"></path><path fill="#373737" d="M60.39 311.72c17.68-2.88 65.38-8.87 81.69 31.4l.1-.04.19.5c.33.92.6 1.74.85 2.65.27.9.6 1.82.89 2.75l.17.63-.1.03c10.66 42.66-31.7 65.29-47.7 73.38-17.9 8.48-42.24 13.57-42.24 13.57C21.82 367.43 18.2 325.43 18.2 325.43s22.72-10.02 42.19-13.71Z"></path><path fill="#FCCFB2" d="M33.54 396.9c-.15-1.96-.4-3.92-.77-5.86l12.76-5.57-4.06-14.26-13.69 3.86a44.78 44.78 0 0 0-3.37-6.35c-.69.18-1.36.41-2.02.68-8.53 3.18-13.1 11.92-10.2 19.57 2.91 7.64 12.2 11.28 20.73 8.14.14-.07.48-.15.62-.2Z"></path><path fill="#FCCFB2" d="M68 325.28a43.04 43.04 0 0 0 8.52 83.96 42.9 42.9 0 0 0 16.67-1.7l15.32-4.72a42.97 42.97 0 0 0 25.35-20.96 43.08 43.08 0 0 0-17.82-58.17 42.9 42.9 0 0 0-32.73-3.13l-15.32 4.72Z"></path><path fill="#FCCFB2" d="M90.24 395.51a11.54 11.54 0 0 0 6.8 22.06 11.54 11.54 0 0 0-6.8-22.06Z"></path><path fill="#373737" d="m51.32 411.43.85 11.2s42.68-12.12 64.88-21.92c0 0 21.67-12.46 24.63-19.79 3.82-9.46-5.14-40.51-5.14-40.51s-2.18 41.1-85.22 71.02Zm77.43-64.88-91.48-21.71s34.66-15.86 57.33-8.67c34.04 10.75 34.15 30.38 34.15 30.38Z"></path><path fill="#EE509C" d="M113.77 411.57c13.87-1.46 46.41-26.57 59.98-31.46 9.84-3.53 10.68-13.13 9.96-19.62-.92-8.25-5.3-18.12-13.53-19.53-10.18-1.71-21.72-10.15-25.14-12.57-10.44-7.4-30.88-16.6-44.6-15.13l13.33 98.31Z"></path><path fill="#D84C96" d="M91.42 307.1c-.87.16-1.32 1.17-1.16 2.09l17 108.86c.16.91.9 1.7 1.78 1.57l18.83-6.97c.88-.15 1.32-1.16 1.16-2.08L113.1 310.26c-.16-.92-.9-1.71-1.79-1.58l-19.88-1.57Z"></path><path fill="#000" d="M68.53 340.39a4.74 4.74 0 0 0-1.52 6.52 4.73 4.73 0 0 0 6.6 1.16 4.75 4.75 0 0 0 1.52-6.53 4.73 4.73 0 0 0-6.6-1.15Zm10.39 40.53a4.75 4.75 0 0 0-1.53 6.53 4.73 4.73 0 0 0 6.6 1.16 4.75 4.75 0 0 0 1.53-6.53 4.74 4.74 0 0 0-6.6-1.16Z"></path><path fill="#fff" d="m68.87 383.6-8.77-31.2s-9.1 9.41-6.15 18.5c3 9.26 14.92 12.7 14.92 12.7Z"></path></g><g class="js-peep js-peep--one"><path fill="#070707" d="M0 24.43v16.14c4.69 3.65 17 17.07 19.55 19.25l-2.07 3.3C30.5 78.3 57.87 86.84 84.12 75.37a43.6 43.6 0 0 0 4.94-2.42l.34-.18 5.78 6.52a43.3 43.3 0 0 0-8.51 45.78l-.08.05a11.63 11.63 0 0 0 11.57 20.11c7.58 16.29 18.84 21.81 21.49 22.92-2.6 5.8-1.4 10.85 7.12 25.77-.99-23.57 89.28-26.06 58.15-68.48v-.5c-.16-6.26-1.05-12.11-2.75-16.04-2.14-5.67-7.7-10.72-11.6-13.72a11.63 11.63 0 1 0-14.5-18.11 43.24 43.24 0 0 0-48.4-7.05L103 63.05a44.66 44.66 0 0 0 5.07-5.12c14.64-16.41 18.31-37.15 14.54-53.64L121.65 0H8.57v14.57l21.13 29.1-1.61 2.58A767.72 767.72 0 0 0 0 24.43Z" opacity="0.1"></path><path fill="#FCCFB2" d="M0 46.64a275.12 275.12 0 0 1 14.89 12.32l10.69-11.72C24.64 46.38 14.95 37.6 0 26.7v19.94Z"></path><path fill="#fff" d="M21.15 39.42 8.9 58.87c15.2 17.73 49.93 26.4 79.63 4.81C112.3 46.41 118.71 20.06 114.12 0H0v10.3l21.15 29.12Z"></path><path fill="#FCCFB2" d="M75.6 71.14a54.47 54.47 0 0 0 5.3-2.6l9.27 10.5 12.3-8.27-7.96-11.93a44.6 44.6 0 0 0 5.07-5.12c-.4-.6-.82-1.17-1.28-1.71-5.65-7.16-15.4-8.8-21.77-3.67-6.37 5.14-6.96 15.1-1.31 22.27.1.11.28.41.37.53ZM74.83 137.06a11.62 11.62 0 0 1 19.35-12.81 11.62 11.62 0 1 1-19.35 12.8Z"></path><path fill="#FCCFB2" d="M82.2 128.58a43.3 43.3 0 0 1 44.62-66.35 43.25 43.25 0 0 1 27.47 18.5l8.9 13.45c5.33 8.03 13.72 18.75 13.27 27.68-.68 13.23-13.51 24.42-25.39 32.3a43.2 43.2 0 0 1-59.93-12.13l-8.94-13.45Z"></path><path fill="#FCCFB2" d="M145.71 87.92a11.62 11.62 0 0 1 19.36-12.8 11.61 11.61 0 1 1-19.36 12.8Z"></path><path fill="#BA6338" d="M155 87.92c.98-.04 1.97 0 2.95.14 0 0 12.3 7.48 15.76 16.62 1.71 3.93 2.57 9.8 2.75 16.06l-14.51-1.5c-.09-7.66.19-17.71-6.95-31.32Zm-38.3 68.69-4.98 7.62s-13.49-4.62-22.15-23.3l.61-.85s12.29 16.03 26.53 16.53Z"></path><path fill="#A55532" d="m176.46 121.26-14.53-1.42s-36.95 21.59-48.13 39.42c-5.4 8.63-6.2 11.8 4.48 30.53-1-23.57 89.32-26.07 58.18-68.53Z"></path><path fill="#9B4B10" d="M109.23 102.41a1 1 0 0 0-1.24-.18 1.02 1.02 0 0 0 .1 1.81 1.02 1.02 0 0 0 1.34-.54.98.98 0 0 0 .01-.76.97.97 0 0 0-.21-.33Zm5.8-.57a.74.74 0 0 0-1.15.1.74.74 0 0 0 .34 1.1.74.74 0 0 0 1.02-.68c0-.2-.07-.38-.21-.52Zm.56-5.77a1.01 1.01 0 0 0-1.73.54 1.03 1.03 0 0 0 .24.84 1.02 1.02 0 1 0 1.5-1.37Zm4.62 2.15a.88.88 0 1 0 0 1.23.87.87 0 0 0 .2-.95.87.87 0 0 0-.2-.28Zm1.46-5.45a1.04 1.04 0 0 0-1.77.58 1.04 1.04 0 0 0 .63 1.12 1.04 1.04 0 0 0 1.36-.57 1.03 1.03 0 0 0-.22-1.13Zm2.4-4.88a.82.82 0 1 0-1.18 1.15.82.82 0 0 0 1.18-1.15ZM103 103.3a.9.9 0 0 0-.64-.27.9.9 0 0 0-.64 1.52.9.9 0 0 0 1.25.01.9.9 0 0 0 .03-1.25Zm3.4 3.43a.9.9 0 1 0 .2.97.88.88 0 0 0-.2-.97Zm-7.44.6a.9.9 0 1 0 .2.96.88.88 0 0 0-.2-.96Z"></path><path fill="#000" d="m95.41 139.64 21-15.19 15.6-11.26.16-.12L153 97.99c2.9-2.09 3.43-6.45 1.22-9.77l-.08-.12-.08-.12c-.2-.3-7.2-7.91-9.6-9.7-1.93-1.45-6.36-3.63-9.28-1.52L119.64 88c-5.31 3.86 1.14 18.68 2.73 22.17a3.82 3.82 0 0 1-1.37 3.86 3.42 3.42 0 0 1-3.78.08c-2.31-2.52-13.64-14.5-19.05-10.6l-15.53 11.25c-2.93 2.11-2.53 7.21-1.9 9.61.76 2.97 5.14 12.46 5.3 12.8l.06.14.08.12c2.2 3.32 6.34 4.3 9.23 2.21Zm28.56-31.74c-2.25-4.84-5.85-15.24-2.74-17.48l14.7-10.75c2.02-1.71 4.24.17 5.93 1.43 2.03 1.52 6.86 7.21 7.7 8.06 1.22 1.97 1.7 3.93 0 5.15L129.37 109a4 4 0 0 1-3.54.52 3.06 3.06 0 0 1-1.87-1.65v.02Zm-39.62 15.73c-.54-2.1-1.62-5.12.7-6.94l14.72-10.76c3.1-2.25 10.98 4.94 14.54 8.84.58.67.87 1.54.8 2.42a4.37 4.37 0 0 1-1.71 3.27l-20.17 14.7c-1.72 1.23-3.7.26-5.03-1.63-.48-1.11-3.2-7.4-3.85-9.92v.02Z"></path><path fill="#000" d="M102.24 112.76a5.01 5.01 0 0 0-7.07.6 5.02 5.02 0 0 0 1 7.02 5.02 5.02 0 0 0 7.06-.6c1.68-2.1 1.23-5.24-1-7.02Zm32.47-23.6a5.01 5.01 0 0 0-7.06.58 5.02 5.02 0 0 0 .99 7.03 5.01 5.01 0 0 0 7.06-.6 5.03 5.03 0 0 0-1-7.02Z"></path><path fill="#B22F65" d="m87.11 102 4.04-3.04c1.11-3.67 5.19-8.65 10.97-12.94 5.57-4.14 11.31-6.58 15.17-6.75l3.77-2.84c-4.99-1.56-9.24-2.23-12.88-2.22-1.31 3.03-4.28 6.72-8.33 10.03-4.05 3.3-8.34 5.54-11.57 6.2A39.78 39.78 0 0 0 87.1 102Z"></path><path fill="#E25D90" d="M108.18 74.2c-12.86.04-17.95 8.6-19.91 16.22 3.24-.66 7.5-2.86 11.57-6.2 4.07-3.34 7.03-6.98 8.34-10.02Z"></path><path fill="#fff" d="m91.15 98.96 26.14-19.69c-3.86.17-9.59 2.61-15.17 6.75-5.79 4.3-9.86 9.27-10.97 12.94Z"></path></g><g class="js-peep js-peep--two"><path fill="#070707" d="m496.2 86.06-12.04-23.14 24.27-33.68 5.57-7.72V6.43h-89.72l-6.2 8.47-25.7-4.32s-.9.86-2.27 2.3c-20.56-7.18-42.65-2.2-54.4 13.94-13.6 18.78-8.55 46.23 10.84 64.04a45.67 45.67 0 0 0-9.7 16.9 16.2 16.2 0 0 0-31.95 3.4v.03c-.02.63 0 1.26.06 1.89l1.85 19.59a16.2 16.2 0 0 0 30.44 6.1 49.5 49.5 0 0 0 11.89 19.08c-2.57.63-7.49-.78-11.92-4.4 8.13 13.06 17.81 9.52 17.81 9.52s1.19 9.32 10.18 12.62a17.66 17.66 0 0 1-4.43-7.89 48.95 48.95 0 0 0 20 8.5 16.23 16.23 0 0 0 11 28.48h.04c.22 0 .45 0 .68-.03l19.62-1.34a16.21 16.21 0 0 0 .98-32.26 46.2 46.2 0 0 0 13.28-10.84 44.1 44.1 0 0 0 3.34-4.57c.8.64 1.61 1.29 2.44 1.87 23.88 17.36 55.38 14.84 70.25-5.61 13.02-17.94 9-43.81-8.33-61.61a76.71 76.71 0 0 0 2.13-4.23Zm-79.15-24.45 4.76 4.33-2.69 4.11a43.3 43.3 0 0 0-46.69 4.14c6.58-9.21 15.63-19.7 26.68-27.33l17.94 14.75Zm-68.5-25.47c6.67-9.2 18.96-12.52 31.43-9.74a31.07 31.07 0 0 0-1.58 3.43l19.84 16.31C388.9 49.45 373.1 62.36 365 78.78c-1.89.65-3.74 1.42-5.53 2.31-15.3-12.37-20.27-32.1-10.94-44.95Zm141.03 106.43c-9.64 13.29-30.97 14.3-47.73 2.37a11.64 11.64 0 0 0-1.25-16.85s16.2-4.15 21.33-26.97c-5.98 8.82-9.5 17.37-22.33 22.29a43.37 43.37 0 0 0-8.34-43.92l3.43-4.05 5.86 3.24 41.7 26.62c.81-.6 1.58-1.25 2.31-1.95 10.5 12.15 13 28.22 5.02 39.22Z" opacity="0.1"></path><path fill="#F4AC89" d="m415.3 82.33 12.83 9.3c-9.73 13.36-3.95 34.14 12.85 46.32 16.81 12.2 38.4 11.25 48.13-2.1 9.72-13.35 3.95-34.13-12.86-46.32l9.32-12.8c23.89 17.32 31.23 48.01 16.37 68.42-14.86 20.41-46.38 22.92-70.28 5.6s-31.23-48-16.37-68.42Z"></path><path fill="#F4AC89" d="M421.86 83.16c-14.86 20.41-46.38 22.93-70.29 5.6-23.9-17.31-31.23-48-16.37-68.42 14.87-20.41 46.37-22.9 70.27-5.6l-9.33 12.8c-16.81-12.19-38.4-11.25-48.12 2.11-9.73 13.36-3.95 34.13 12.85 46.32 16.8 12.2 38.43 11.27 48.13-2.1l12.86 9.3Z"></path><path fill="#fff" d="m423.8 0-6.2 8.45-25.71-4.3s-10.32 9.68-13.99 19.19l40.02 32.83s20.47 14.85 20.85 15.1l43.02 27.38c7.9-5.79 13.97-19.2 13.97-19.2l-12.05-23.1L514 14.45 513.86 0H423.8Z"></path><path fill="#F4AC89" d="m440.06 72.11-5.87-3.24-9.22 10.87-11.8-7.9 8.15-12.44-4.78-4.34c.43-.65.75-1.01 1.22-1.6 5.65-7.15 14.96-9.1 21.34-3.97 6.37 5.12 6.96 15.06 1.3 22.2l-.34.42Z"></path><path fill="#9E9EE6" d="M344.84 85.6c17.03-20.26 48.98-21.5 71.36-2.76 22.38 18.73 26.72 50.34 9.69 70.6-16.86 20.05-49.39 23.24-70.66 3.35l-.71-.58-.59-.5c-23.14-17.4-25.98-50.03-9.1-70.11Z"></path><path fill="#78C0C3" d="M440.1 121.4s16.21-4.15 21.34-26.92c-6.43 9.5-10.03 18.7-25.58 23.36-15.55 4.67.14 6 4.24 3.55Z"></path><path fill="#373737" d="M432.23 71.1s-6.22-7.43-11.62-10.08l-2.63 3.42 11.35 9.5 2.9-2.85Z" opacity=".1"></path><path fill="#EDA280" d="M423.75 123.12a11.63 11.63 0 0 1 16.33-1.67 11.57 11.57 0 0 1 1.68 16.3 11.63 11.63 0 0 1-20.56-6.12 11.57 11.57 0 0 1 2.55-8.51Z"></path><path fill="#F5AB85" d="M364.88 74.52a43.31 43.31 0 0 1 60.89-6.34 43.17 43.17 0 0 1 14.22 45.86 43.13 43.13 0 0 1-7.87 14.9l-10.18 12.51a43.32 43.32 0 0 1-60.88 6.34 43.18 43.18 0 0 1-14.23-45.86 43.13 43.13 0 0 1 7.88-14.9l10.17-12.51Z"></path><path fill="#fff" d="m392.02 75.31 28.28 24.6s3.73-14.31-5.57-22.1c-9.16-7.68-20.58-4.2-22.71-2.5Z"></path><path fill="#000" d="M385.79 89.33a5.04 5.04 0 0 0-2.3-6.74 5.05 5.05 0 0 0-6.62 2.67 5.04 5.04 0 0 0 2.3 6.75 5.04 5.04 0 0 0 6.62-2.68Zm30.92 25.9a5.03 5.03 0 0 0-2.3-6.73 5.05 5.05 0 0 0-6.6 2.67 5.03 5.03 0 0 0 2.3 6.73 5.05 5.05 0 0 0 6.6-2.67Z"></path><path fill="#9E9EE6" d="M374.72 182.75a16.2 16.2 0 0 1 15.05-17.25l19.63-1.34a16.2 16.2 0 0 1 16.48 21.29 16.15 16.15 0 0 1-14.26 10.99l-19.63 1.34a16.2 16.2 0 0 1-17.27-15.03Zm-50.78-42.2a16.23 16.23 0 0 1-17.67-14.58l-1.84-19.55a16.21 16.21 0 0 1 32.3-3.04l1.84 19.55a16.17 16.17 0 0 1-14.62 17.63Z"></path><path fill="#78C0C3" d="M359.65 87.9s15.5-32.73 41.24-49.06c-10.72 1.2-38.2 23.43-41.24 49.05Z"></path><path fill="#9E9EE6" d="m367.93 135.92 66.61-7.63s-3.29 4.74-8.14 10.82c-9.18 11.49-23.97 27.8-32.8 26.11-13.54-2.56-38.3-13.59-38.3-13.59s-19.24-25.79-14.32-41.53c4.9-15.75 22.38-36.55 22.38-36.55s-1.37 44.93 4.57 62.37Z"></path><path fill="#E67DB7" d="M307 129.18s22.08 5.79 31.52-9.53l-1.28-13.57s-16.42 24.9-30.24 23.1Z"></path><path fill="#8487CD" d="m305.55 117.94-1.2-13.43s11.72-14.42 30.69-6.42c-8.03.2-22.9 5.09-29.49 19.85Zm80.8 48.17s-11.58 13.03 4.91 31.72l11.28-.76s-21.4-16.21-16.2-30.96Z"></path><path fill="#78C0C3" d="m395.23 165.35 17.14-1.12s13.56 19.16 1.2 31.96c.8-8.41-4.43-22.83-18.34-30.84Z"></path><path fill="#8487CD" d="M356.78 149.92s-14.42-9.84-18.35-22.9c5.57 4.8 24.2 13.94 24.2 13.94s-3.95 5.3-5.85 8.96Z"></path><path fill="#78C0C3" d="M363.57 135.5s-21.71-28.92-13.15-55.45c5.01-4.14 7.94-5.25 7.94-5.25s-7.64 38.86 5.21 60.7Z"></path><path fill="#E67DB7" d="M365.4 143.26s39.08 19.2 60-2.86l-60 2.86Z"></path><path fill="#8487CD" d="M356.2 155.67s.97-4.25 4.83-8.98l28.71 18.84s-15.78 1.53-33.55-9.86Z"></path><path fill="#9E9EE6" d="M354.52 156.2s-9.7 3.55-17.83-9.49c4.84 3.94 10.29 5.26 12.57 4.17 2.29-1.09 5.22 3.1 5.26 5.33Zm0 0s1.18 9.31 10.18 12.6c-3.74-3.62-5.01-9.3-4.66-9.93.14 1.15-5.52-2.66-5.52-2.66Z"></path></g><g class="js-peep js-peep--three"><path fill="#070707" d="M492.41 403.93a42.85 42.85 0 0 0-3.03 3.23l-.18.2-.78.92-7.8-4.02c6.57-15.65 3.17-33.97-8.38-46.76a11.57 11.57 0 0 0-18.58-13.71 254.44 254.44 0 0 0-9.18-5.58c-12.1-6.57-38.28-8.37-55.66 16.75-15.4 26.53-1.44 48.81 9.65 57a261.8 261.8 0 0 0 9.4 6.34 11.57 11.57 0 1 0 20.5 10.69c15.7 4.28 32.62-.13 43.74-11.73l7.14 5a45.04 45.04 0 0 0-2.87 6.6c-6.26 16.83-4.7 33.68 1.26 46.93 3.57 7.94 25.73 26.53 30.8 31.98l5.85 6.26v-122.7c-6.73 2.97-16.05 6.8-21.88 12.6Z" opacity="0.1"></path><path fill="#fff" d="m502.04 475.99 11.96 7.88V381.39c-14.64 3.24-29.4 12.19-39.86 28.43-19.82 30.9-9.25 65.19 9.3 79.33l18.6-13.16Z"></path><path fill="#9B6D5C" d="m499.8 477.57-12.95 9.17c3.13 4.13 7.65 9.8 12.73 15.25.8.86 10.06 10.77 11.28 12H514v-19.43a711.51 711.51 0 0 1-14.2-16.99Zm-16.27-79.4a54.14 54.14 0 0 0-3.99 4.34l-12.46-6.43-8.45 12.17 11.74 8.21a44.7 44.7 0 0 0-2.87 6.6c.57.42 1.18.8 1.81 1.14 7.86 4.62 17.53 2.6 21.6-4.49 4.08-7.09 1.01-16.58-6.85-21.2-.12-.06-.4-.28-.53-.35ZM459.93 335.74a11.54 11.54 0 1 1-12.6 19.34 11.54 11.54 0 0 1 12.6-19.34Z"></path><path fill="#9B6D5C" d="M454 343.8c20.98 13.45 27.32 40.97 14.32 61.22-12.99 20.26-40.64 25.96-61.62 12.5l-10.05-7.08c-20.97-13.45-27.6-40.52-14.6-60.77 12.99-20.26 40.36-25.52 61.33-12.06l10.62 6.2Z"></path><path fill="#9B6D5C" d="M415.3 408.54a11.54 11.54 0 1 1-12.61 19.33 11.54 11.54 0 0 1 12.62-19.33Z"></path><path fill="#77564D" d="M468.31 405.02c-13 20.25-40.64 25.95-61.62 12.5l-1.73-1.12a16.3 16.3 0 0 0-.75-.49l2.85-3.85s19.6 11.33 27.82-2.15c2.9-4.75.66-14.9 5.76-23.1 5.34-8.58 15.03-10.03 18.2-14.98 8.5-13.28-10.55-25.96-10.55-25.96l2.27-4.2c.31.2.65.38 1 .56l2.43 1.56c20.97 13.46 27.32 40.97 14.32 61.23Z"></path><path fill="#4F3934" d="M389.55 406.2c-11.1-8.18-25.07-30.46-9.67-57 17.4-25.12 43.58-23.33 55.72-16.75 3.9 2.14 15 9.21 15 9.21l-2.27 4.2s-33.12-23.41-40.4.89c-1.62 5.4-3.84 11.77-6.44 15.98a61.25 61.25 0 0 1-10.74 12.32c-18.9 16.93 16.36 37 16.36 37l-2.86 3.85s-11.13-7.07-14.7-9.7Z"></path><path fill="#000" d="M445.1 370.65a5 5 0 0 0 6.37-3.11 5.02 5.02 0 0 0-3.47-6.18 5.02 5.02 0 0 0-6.37 3.11 5.02 5.02 0 0 0 3.48 6.18Zm-21.7 33.78a5 5 0 0 0 6.38-3.12 5.02 5.02 0 0 0-3.48-6.18c-2.71-.84-5.57.55-6.36 3.12a5.02 5.02 0 0 0 3.47 6.18Z"></path><path fill="#fff" d="m459.43 374.91-19.61 31.72s14.67 1.33 20.82-9.05c6.08-10.24.81-20.85-1.21-22.67Z"></path></g><path fill="#F7DF1E" d="m252.44 107.05 161.51 140.4-140.4 161.5-161.5-140.4 140.4-161.5Z"></path><path fill="#000" d="M251.14 327.15c-1.36 8.14-.52 15.71 6.97 22.22 6.28 5.46 13.03 5.82 16.8 1.48 4.51-5.2 1.99-10.62-2.3-19.66l-2.38-4.93c-6.9-14.17-9.1-26.33 1.63-38.67 9.88-11.37 26.07-12.49 39.62-.7 9.65 8.38 13.67 17.76 11.03 30.89l-18.4-2.7c1.45-6.92.24-11.2-4.12-14.98-4.45-3.86-9.71-3.5-12.9.19-3.96 4.54-2.74 8.83 1.32 17.3l2.38 4.93c8.1 16.73 10.48 28.69-.52 41.34-11.87 13.65-29.1 11.8-43.5-.73-14.1-12.25-17.37-26.87-14.19-39.54l18.56 3.56Zm-54.74-45.28c-1.3 6.3-2.23 11.76 2.98 16.29 4.99 4.33 9.83 5.12 16.41-2.46l44.8-51.53 15.17 13.19-44.97 51.74c-13.65 15.7-29.07 14.83-42.51 3.14-12.15-10.56-13.73-22.96-10.73-33.63l18.84 3.26ZM257.5 160.99a5.96 5.96 0 0 0-5.97 6 6.05 6.05 0 0 0 2.98 5.21 5.97 5.97 0 0 0 8.96-5.2 6.05 6.05 0 0 0-2.98-5.2c-.9-.53-1.94-.81-2.99-.81Zm-16.73 17.97-1.31-.34c-9.83-2.5-15.46-6.74-15.46-11.63 0-4.9 5.63-9.14 15.46-11.63l1.31-.34.37 1.32c1 3.45 2.27 6.8 3.8 10.05l.3.6-.3.6a65.75 65.75 0 0 0-3.8 10.05l-.37 1.32Zm-1.93-20.53c-7.46 2.1-12.04 5.34-12.04 8.56 0 3.22 4.58 6.44 12.04 8.56a70.47 70.47 0 0 1 3.3-8.56 69.82 69.82 0 0 1-3.3-8.56Zm35.39 20.53-.37-1.32c-1-3.45-2.27-6.81-3.81-10.05l-.28-.6.28-.6a66.09 66.09 0 0 0 3.8-10.05l.38-1.32 1.32.33c9.82 2.5 15.45 6.74 15.45 11.64s-5.63 9.13-15.45 11.63l-1.32.34Zm-1.37-11.97a69.86 69.86 0 0 1 3.3 8.56c7.46-2.12 12.04-5.34 12.04-8.56 0-3.22-4.58-6.45-12.04-8.56a69.99 69.99 0 0 1-3.3 8.56Zm-34.04-8.58-.37-1.3c-2.76-9.8-1.92-16.82 2.3-19.27 4.14-2.4 10.79.43 17.75 7.63l.95.98-.95.98a66.08 66.08 0 0 0-6.76 8.34l-.38.54-.65.06c-3.56.28-7.1.85-10.57 1.71l-1.32.33Zm5.3-18.63c-.75 0-1.41.17-1.97.5-2.78 1.6-3.27 7.2-1.36 14.75a69.63 69.63 0 0 1 9.03-1.4 69.8 69.8 0 0 1 5.73-7.15c-4.36-4.27-8.48-6.7-11.43-6.7ZM270.89 197c-3.98 0-9.1-3.01-14.4-8.5l-.94-.97.95-.99a66.08 66.08 0 0 0 6.76-8.33l.37-.55.66-.05c3.56-.28 7.1-.86 10.57-1.71l1.32-.34.37 1.32c2.76 9.79 1.92 16.8-2.3 19.25a6.6 6.6 0 0 1-3.36.87Zm-11.44-9.5c4.36 4.27 8.48 6.69 11.43 6.69.75 0 1.42-.16 1.97-.49 2.78-1.6 3.27-7.2 1.35-14.76-2.97.67-5.99 1.14-9.02 1.4a69.42 69.42 0 0 1-5.73 7.16Zm16.73-29.08-1.32-.34c-3.47-.86-7-1.43-10.57-1.71l-.66-.06-.37-.54a65.73 65.73 0 0 0-6.76-8.34l-.95-.98.95-.98c6.96-7.2 13.6-10.03 17.75-7.63 4.22 2.45 5.06 9.47 2.3 19.26l-.37 1.32Zm-11-4.8c3.19.3 6.21.77 9.02 1.41 1.92-7.55 1.43-13.15-1.35-14.76-2.76-1.6-7.94.86-13.4 6.2a69.77 69.77 0 0 1 5.73 7.16ZM244.12 197a6.6 6.6 0 0 1-3.37-.87c-4.22-2.44-5.06-9.46-2.3-19.25l.37-1.32 1.32.34a65.5 65.5 0 0 0 10.57 1.7l.65.06.38.55a66.27 66.27 0 0 0 6.76 8.33l.95.99-.95.98c-5.3 5.48-10.41 8.49-14.38 8.49Zm-3.33-18.06c-1.91 7.55-1.42 13.15 1.36 14.76 2.75 1.59 7.94-.85 13.4-6.2a70.2 70.2 0 0 1-5.73-7.15 69.32 69.32 0 0 1-9.03-1.41Zm16.71 1.77c-2.3 0-4.66-.1-7.02-.3l-.66-.06-.38-.54a85.45 85.45 0 0 1-7.02-12.22l-.28-.6.28-.6a85.5 85.5 0 0 1 7.02-12.22l.38-.55.66-.05c4.67-.4 9.37-.4 14.05 0l.65.05.37.55a84.47 84.47 0 0 1 7.03 12.22l.28.6-.28.6c-2 4.26-4.34 8.35-7.03 12.22l-.37.54-.65.06c-2.34.2-4.68.3-7.03.3Zm-6.13-3.05c4.08.31 8.18.31 12.27 0 2.3-3.4 4.36-6.97 6.13-10.67a80.47 80.47 0 0 0-6.14-10.67 80.49 80.49 0 0 0-12.26 0 80.12 80.12 0 0 0-6.14 10.67 82 82 0 0 0 6.14 10.67Z"></path></svg>
