<svg xmlns="http://www.w3.org/2000/svg" xmlns:xlink="http://www.w3.org/1999/xlink" width="631" height="611" viewBox="0 0 631 611" style="width:100%;height:auto">
  <defs>
    <path id="path-1" d="M0 0L611 0 611 610.96945 0 610.96945z"></path>
    <linearGradient id="linearGradient-3" x1="37.5%" x2="61.932%" y1="0%" y2="97.726%">
      <stop stop-color="#EC008C" offset="0%"></stop>
      <stop stop-color="#FFF200" offset="100%"></stop>
    </linearGradient>
  </defs>
  <g fill="none" stroke="none">
    <g transform="translate(-275 -270)">
      <g transform="translate(275 270)">
        <g transform="translate(20)">
          <g>
            <mask fill="#fff">
              <use xlink:href="#path-1"></use>
            </mask>
          </g>
          <path fill="#D8D8D8" d="M193.830636 559L53 483.636818 266.354632 454 402 530.894454 193.830636 559"></path>
          <path fill="#864F17" d="M433.53 157.497c9.105-10.654 24.333-17.776 44.684-7.514l.042-.07c.004-.007.214.107.383.202.67.375 1.253.725 1.886 1.115.642.372 1.282.754 1.929 1.166.165.105.42.269.416.275l-.04.068c20.77 14.45 22.124 29.09 15.93 43.528-6.97 16.242-33.345 78.306-11.036 112.856-46.271 7.589-71.658-35.937-74.111-58.276-6.4-48.264 7.487-78.808 19.916-93.35"></path>
          <path fill="#373737" d="M384.361 261.087l-12.49-12.832c8.737-16.016 33.926-28.3 60.185-16.66 26.26 11.642 34.05 38.546 28.012 55.757l-17.876-.629s-14.499 18.647-20.84 32.962C412.916 338.73 407.83 364 407.83 364L350 338.363l34.361-77.276"></path>
          <path fill="#F2C5AD" d="M421.676 227.48c1.65.307 2.55.571 4.504 1.13l5.416-9.61 10.827 4.346-4.167 10.488c2.091 1.19 3.187 1.9 4.744 3.101-.192.552-.438.99-.702 1.529-3.17 6.44-10.401 9.306-16.15 6.403-5.748-2.904-7.838-10.477-4.668-16.916.052-.106.141-.367.196-.471"></path>
          <path fill="#F2C5AD" d="M425.002 177.713c-9.753 15.83-4.808 36.556 11.046 46.293 15.854 9.738 36.612 4.8 46.365-11.03l6.586-10.69c9.752-15.828 4.806-36.554-11.047-46.292-15.854-9.738-36.613-4.8-46.366 11.03l-6.584 10.69"></path>
          <path fill="#864F17" d="M477.117 207.577c-2.174 3.53-1.078 8.148 2.446 10.314 3.526 2.166 8.146 1.062 10.32-2.468 2.174-3.53 1.078-8.148-2.448-10.314-3.525-2.167-8.145-1.061-10.318 2.468"></path>
          <path fill="#864F17" d="M481.509 187s-7.693 26.174-20.509 52.056l4.932 1.944S486.57 211.256 493 193.76L481.509 187"></path>
          <path fill="#D84C96" d="M525.219 207.47c-1.337 2.225-3.923 3.158-5.778 2.085L491.72 193.5c-1.854-1.073-2.274-3.748-.939-5.972 1.337-2.223 3.922-3.157 5.776-2.084l27.72 16.055c1.86 1.073 2.28 3.746.943 5.97"></path>
          <path fill="#EE509C" d="M432 158.47c9.405-15.954 30.035-21.21 45.986-11.803l7.656 4.514c15.95 9.407 21.058 29.865 11.654 45.819L432 158.47"></path>
          <path fill="#864F17" d="M469.796 174L453 163.648c2.424-4.42 7.71-5.958 11.805-3.434l1.966 1.212c4.096 2.524 5.45 8.154 3.025 12.574"></path>
          <path fill="#FFF" d="M431.237 199L456 213.561s-9.337 6.496-17.26 1.632c-7.83-4.805-8.195-14.163-7.503-16.193"></path>
          <path fill="#000" d="M439.692 189.801c-1.634 1.576-4.163 1.603-5.65.054-1.487-1.547-1.368-4.079.264-5.656 1.634-1.577 4.164-1.602 5.652-.054 1.487 1.547 1.368 4.079-.266 5.656"></path>
          <path fill="#000" d="M467.692 205.8c-1.633 1.578-4.163 1.603-5.65.055-1.487-1.547-1.368-4.08.265-5.656 1.634-1.577 4.164-1.602 5.651-.055 1.487 1.547 1.368 4.08-.266 5.657"></path>
          <path fill="#7298D2" d="M391.997 441.771c1.444-.205 2.622-1.642 2.624-3.21.003-1.573-1.17-2.678-2.614-2.474l-16.705 2.362c-1.444.205-2.622 1.642-2.624 3.215-.003 1.568 1.17 2.673 2.613 2.469l16.706-2.362zm-.014 7.456c1.444-.205 2.622-1.646 2.625-3.215.003-1.572-1.17-2.677-2.614-2.473l-16.706 2.362c-1.444.204-2.621 1.642-2.624 3.215-.003 1.568 1.17 2.677 2.613 2.473l16.706-2.362zm-.014 7.452c1.444-.205 2.622-1.647 2.625-3.215.003-1.568-1.17-2.678-2.614-2.474l-16.706 2.362c-1.444.205-2.62 1.647-2.624 3.215-.003 1.568 1.17 2.678 2.614 2.474l16.705-2.362zm-51.577 7.333c5.291-.748 9.584-6.01 9.594-11.752.01-5.742-4.264-9.792-9.555-9.044-5.287.748-9.58 6.01-9.59 11.752-.01 5.741 4.264 9.792 9.551 9.044zm-139.24 19.69l19.149-2.708-9.537-19.442-9.612 22.15zm103.005-29.51c2.893-.41 5.24-3.283 5.245-6.424.005-3.142-2.332-5.357-5.224-4.948-2.841.401-5.16 3.188-5.246 6.264l-13.913 1.968-.039 20.796 19.15-2.708.027-14.948zm-43.152 6.102c2.888-.408 5.238-3.283 5.244-6.424.006-3.141-2.335-5.357-5.223-4.949-2.892.41-5.243 3.289-5.249 6.43 0 .375.033.737.096 1.083-1.357-.612-2.915-.848-4.57-.614-5.288.748-9.584 6.01-9.595 11.751-.01 5.742 4.27 9.792 9.556 9.045 5.287-.748 9.583-6.01 9.594-11.752.003-1.689-.365-3.23-1.02-4.547.375.04.765.034 1.167-.023zm-68.921-7.045L406 423l-.085 45.75L192 499l.084-45.75z"></path>
          <path fill="#252626" d="M304.301 491.128c7.582-1.073 13.714 4.733 13.699 12.969l-.021 11.432c-.015 8.233-6.172 15.782-13.754 16.854l-10.526 1.49c-7.578 1.07-13.714-4.74-13.699-12.973l.021-11.43c.016-8.237 6.176-15.782 13.754-16.853l10.526-1.49"></path>
          <path fill="#497DBA" d="M304.012 442.05c2.761-.427 4.993 1.891 4.988 5.178-.006 3.286-2.247 6.293-5.008 6.721-2.762.428-4.997-1.886-4.992-5.172l.002-.172c.082-3.219 2.296-6.134 5.01-6.554"></path>
          <path fill="#497DBA" d="M261.012 449.05c2.758-.427 4.993 1.892 4.988 5.178-.006 3.287-2.25 6.294-5.008 6.72-.383.06-.756.067-1.114.025-1.916-.22-3.412-1.816-3.787-4.063a6.838 6.838 0 01-.091-1.132c.005-3.287 2.25-6.299 5.012-6.727"></path>
          <path fill="#497DBA" d="M252.02 456.09c1.73-.235 3.356.001 4.774.614.41 2.15 2.045 3.676 4.141 3.888.684 1.318 1.068 2.861 1.065 4.552-.011 5.749-4.498 11.018-10.02 11.767-5.522.749-9.991-3.307-9.98-9.055.011-5.75 4.498-11.018 10.02-11.767"></path>
          <path fill="#497DBA" d="M391.38 451.024c1.447-.202 2.623.895 2.62 2.443-.003 1.55-1.184 2.974-2.632 3.176l-16.748 2.333c-1.448.202-2.623-.895-2.62-2.443.003-1.55 1.183-2.974 2.63-3.176l16.75-2.333"></path>
          <path fill="#497DBA" d="M391.38 437.024c1.448-.202 2.623.89 2.62 2.444-.002 1.551-1.183 2.972-2.631 3.174l-16.75 2.334c-1.447.202-2.622-.89-2.619-2.44.003-1.555 1.183-2.975 2.63-3.177l16.75-2.335"></path>
          <path fill="#497DBA" d="M391.38 444.024c1.447-.202 2.623.89 2.62 2.444-.003 1.549-1.184 2.973-2.631 3.175l-16.749 2.333c-1.447.202-2.623-.894-2.62-2.443.003-1.554 1.184-2.974 2.631-3.176l16.748-2.333"></path>
          <path fill="#497DBA" d="M341.018 444.09c5.527-.75 9.993 3.306 9.982 9.055-.011 5.749-4.495 11.017-10.023 11.766-5.522.749-9.988-3.307-9.977-9.055.01-5.75 4.494-11.018 10.018-11.767"></path>
          <path fill="#497DBA" d="M299.55 450l-.002.166c-.006 3.173 2.436 5.408 5.452 4.995l-.029 15.103L285 473l.04-21.012L299.55 450"></path>
          <path fill="#497DBA" d="M210.039627 462L220 481.310755 200 484 210.039627 462"></path>
          <path fill="#FFF" d="M392.144 205.505l.014-7.69-91.582 12.891-.014 7.69 91.582-12.891zm-.023 12.428l.014-7.695-91.582 12.891-.014 7.695 91.582-12.89zm-.128 69.156l.111-60.153-91.867 12.93-.112 60.154 91.868-12.93zm-.218 117.131l.07-37.502-183.73 25.862-.07 37.502 183.73-25.862zM208.474 222.505l-.168 90.462 83.68-11.78.167-90.461-83.679 11.779zm183.397 129.997l.095-51.273-183.73 25.863-.095 51.272 183.73-25.862zm-198.41-147.444L407 175l-.46 247.942L193 453l.46-247.942z"></path>
          <path fill="#373737" d="M300.385 120.058c-1.925.27-3.491 2.176-3.495 4.258-.004 2.083 1.557 3.548 3.48 3.278 1.93-.271 3.493-2.177 3.497-4.258.004-2.082-1.553-3.55-3.482-3.278zm-16.967 18.616c-1.352.19-2.454 1.756-2.457 3.491-.004 1.738 1.094 2.991 2.445 2.8l33.874-4.762c1.352-.19 2.453-1.752 2.457-3.49.003-1.735-1.093-2.992-2.445-2.802l-33.874 4.763zm35.065 376.279l.02-11.274c.017-8.12-6.067-13.846-13.587-12.788l-10.441 1.467c-7.517 1.058-13.628 8.498-13.643 16.62l-.021 11.271c-.015 8.118 6.072 13.848 13.588 12.792l10.441-1.47c7.521-1.056 13.628-8.5 13.643-16.618zm88.881-340.77l.07-37.953-214.21 30.121-.617 331.969 214.211-30.121.546-294.016zm-8.952-79.057c7.52-1.058 13.603 4.666 13.588 12.79l-.757 407.777c-.015 8.118-6.123 15.562-13.643 16.618l-196.008 27.564c-7.52 1.056-13.607-4.674-13.592-12.792l.757-407.777c.015-8.122 6.126-15.561 13.647-16.618l196.008-27.562z"></path>
          <path fill="#D4E0F1" d="M392 227L391.888132 287.083841 300 300 300.111868 239.916668 392 227"></path>
          <path fill="#D4E0F1" d="M392 367L391.930276 404.286572 208 430 208.069215 392.713428 392 367"></path>
          <path fill="#D4E0F1" d="M392 302L391.904843 353.182882 208 379 208.095157 327.817118 392 302"></path>
          <path fill="#7298D2" d="M292 211L291.831927 302.133792 208 314 208.168073 222.866208 292 211"></path>
          <path fill="#497DBA" d="M392 198L391.986213 205.846816 300 219 300.014297 211.153184 392 198"></path>
          <path fill="#497DBA" d="M392 211L391.985703 218.849419 300 232 300.014297 224.150581 392 211"></path>
          <path fill="#252626" d="M316.541 135.02c1.36-.205 2.463 1.155 2.459 3.03-.003 1.88-1.111 3.57-2.47 3.776l-34.07 5.153c-1.36.206-2.464-1.15-2.46-3.03.003-1.875 1.111-3.57 2.471-3.775l34.07-5.153"></path>
          <path fill="#252626" d="M299.507 121.034c1.934-.285 3.497 1.258 3.493 3.45-.004 2.192-1.572 4.197-3.507 4.482-1.93.285-3.497-1.257-3.493-3.45.004-2.191 1.576-4.197 3.507-4.482"></path>
          <path fill="#497DBA" d="M367 155L366.970044 170.041585 352 172 352.029956 156.958415 367 155"></path>
          <path fill="#7298D2" d="M367.287 169.367l.029-15.67-14.508 2.04-145.06 20.403-.028 15.67 145.059-20.402 14.508-2.04zM193.07 167.09L407 137l-.07 37.911L193 205l.07-37.911z"></path>
          <path fill="#FFF" d="M353 157L352.970987 172.638794 208 193 208.029013 177.361206 353 157"></path>
          <path fill="#B3BABC" d="M194 559c-6.877-3.767-13.752-7.529-20.628-11.296-3.838-2.1-6.382-6.395-6.372-11.704l20.628 11.296c-.01 5.303 2.534 9.603 6.372 11.704"></path>
          <path fill="#B3BABC" d="M384.344 86.43L405 98c-2.123-1.19-4.642-1.69-7.344-1.3L377 85.13c2.703-.39 5.222.111 7.344 1.3"></path>
          <path fill="#C0C6C9" d="M202.414065 123L182 112.06548 377.585935 85 398 95.93452 202.414065 123"></path>
          <path fill="#C0C6C9" d="M187.250865 547L167 535.885687 167.749135 129 188 140.110749 187.250865 547"></path>
          <path fill="#B3BABC" d="M187.995 141L167 129.766c.016-8.195 6.287-15.7 14.005-16.766L202 124.234c-7.718 1.066-13.99 8.571-14.005 16.766"></path>
          <path fill="#F2C5AD" d="M439.287 331c.506 0 .993-.026 1.457-.074 4.256-.431 7.911-2.606 10.572-6.29 4.877-6.75 7.775-18.739 6.297-36.65-.025-.308-.062-.676-.089-.982l-12.502-.446c1.205 12.892-.254 25.812-3.738 30.63-.73 1.011-1.277 1.145-1.777 1.195-2.439.244-8.1-4.577-13.903-24.221-4.225-14.305-6.267-29.015-6.288-29.162L407 266.735c.088.639 2.197 15.822 6.692 31.043 2.725 9.226 5.789 16.585 9.106 21.871 5.749 9.163 11.914 11.351 16.489 11.351"></path>
          <path fill="#F2C5AD" d="M411.914 136.297c3.12-2.205 7.487-1.531 9.753 1.506 2.266 3.036 1.574 7.286-1.547 9.491L409.217 155 401 144.01l10.914-7.713"></path>
        </g>
        <g fill="url(#linearGradient-3)" transform="translate(0 145)">
          <path d="M90 130L160 130 50 320 70 190 0 190 110 0z"></path>
        </g>
      </g>
    </g>
  </g>
</svg>
