<svg xmlns="http://www.w3.org/2000/svg" xmlns:xlink="http://www.w3.org/1999/xlink" width="366" height="366" viewBox="0 0 366 366" style="width:100%;height:auto;min-height:300px">
  <defs>
    <path id="path-1" d="M0 0L366 0 366 365.9817 0 365.9817z"></path>
  </defs>
  <g fill="none" stroke="none">
    <g transform="translate(-378 -465)">
      <g transform="translate(378 465)">
        <g>
          <mask id="mask-2" fill="none">
            <use xlink:href="#path-1"></use>
          </mask>
          <path fill="#E3E3E3" d="M273.21656 281.929495L273.21656 295.3803 282.52089 287.107785 282.521195 287.107785 282.52638 287.102905 286.962605 283.158645 282.599885 282.76855 276.22813 281.515305 275.48881 282.132625 273.21656 281.929495" mask="url(#mask-2)"></path>
          <path fill="#5454B5" d="M228.445 245.655l23.709-9.474c-2.093-25.82-27.604-56.267-68.354-56.267-40.752 0-66.414 30.447-68.507 56.267l23.482 9.474V366h89.67V245.655" mask="url(#mask-2)"></path>
        </g>
        <path fill="#373737" d="M248.736 123.318c-3.056-19.556-12.898-71.735-61.633-75.145v-.116c0-.01-.195-.025-.472-.032-1.094-.03-1.99-.03-3.049-.015a82.33 82.33 0 00-3.323.015c-.277.007-.818.022-.818.032v.11c-48.735 3.346-58.192 55.581-61.25 75.15-2.817 21.713.249 49.019.249 49.019 84.58 10.494 130.343 0 130.343 0s2.77-27.307-.047-49.018"></path>
        <path fill="#1E1E1E" d="M232 131s-6.728 41.745-47.38 40.99C155.144 172 146 151.5 146 151.5l86-20.5"></path>
        <path fill="#F0F0F0" d="M143.229 350c-1.71 0-3.463-.2-5.229-.656V337h90v4.697l-63.367-.895S154.863 350 143.229 350"></path>
        <path fill="#F2C5AD" d="M199.998 182.173c-2.307-.547-3.623-.722-6.466-1.12l-1.489-15.456-16.48-.597-.627 15.871c-3.385.337-5.206.625-7.907 1.28-.067.82-.001 1.523.032 2.368.404 10.094 8.102 17.912 17.191 17.463 9.09-.45 16.133-8.998 15.73-19.091-.007-.166.026-.553.016-.718"></path>
        <path fill="#1E1E1E" d="M175.924 172l.112-4 .04.007-.152 3.993"></path>
        <path fill="#343434" d="M192 172"></path>
        <path fill="#1E1E1E" d="M192.195 172l-.39-4 .39 4"></path>
        <path fill="#DCB49E" d="M185.49 172c-.37 0-.745-.004-1.122-.01h-.02a58.53 58.53 0 01-8.348-.58l.157-4.092a48.198 48.198 0 008.67.633 48.279 48.279 0 008.77-.951l.403 4.334a52.942 52.942 0 01-8.51.666"></path>
        <path fill="#F2C5AD" d="M231.993 120.595c.436 26.297-20.633 47.965-47.059 48.398-26.425.433-48.2-20.534-48.633-46.831l-.294-17.757c-.436-26.296 20.634-47.964 47.059-48.398 26.425-.433 48.2 20.534 48.635 46.83l.292 17.758"></path>
        <path fill="#F4C7AE" d="M148.998 121.295c.114 6.902-5.389 12.59-12.29 12.703-6.903.113-12.592-5.39-12.706-12.293-.113-6.904 5.39-12.59 12.294-12.703 6.901-.113 12.589 5.39 12.702 12.293"></path>
        <path fill="#363636" d="M233 137l-1.943-2.903.073-.34L233 137m-2.667-3.985l-.333-.497c.04-.172.078-.346.117-.518l.54.939-.324.076"></path>
        <path fill="#1F1F1F" d="M231.908 133l-.908-.934.408-.066.592.707c-.028.091-.058.189-.092.293"></path>
        <path fill="#DEB5A0" d="M228.894 132l-21.176-31.232L154 107.025c.382-1.24.77-2.446 1.167-3.63L208.327 93l2.233 6.972L229 131.535l-.106.465"></path>
        <path fill="#373737" d="M145.648 168.058L133.619 171s-1.85-49.534.847-76.503c0 0 5.666-27.318 12.335-32.987C155.418 54.186 191 53 191 53s-42.308 16.51-45.352 115.058"></path>
        <path fill="#373737" d="M189 63.559L242.296 153s4.732-42.135-10.34-63.713C209.361 56.937 189 63.56 189 63.56"></path>
        <path fill="#EE509C" d="M124.44 101c-3.205-15.144 12.154-58.049 12.644-74.029.354-11.57 10.213-15.755 17.326-17.218 9.04-1.86 20.981-.612 25.302 7.587 5.34 10.139 18.207 19.435 21.944 22.212 11.41 8.479 28.175 26.882 31.344 41.85L124.44 101"></path>
        <path fill="#E44E96" d="M126 85L126.842836 80.1296101 184 75 126 85"></path>
        <path fill="#D84C96" d="M242.985 88.757c.144.976-.775 1.785-1.796 1.933L120.28 109.974c-1.022.15-2.136-.36-2.281-1.335l.887-22.227c-.146-.978.775-1.785 1.795-1.935l111.527-17.451c1.023-.15 2.137.359 2.283 1.336l8.493 20.395"></path>
        <path fill="#FFF" d="M208 141.784L166 141s7.13 15 20.719 15c13.423 0 20.684-11.205 21.281-14.216"></path>
        <path fill="#000" d="M202.222 123.887c.852 2.938 3.902 4.7 6.819 3.934 2.914-.766 4.587-3.768 3.738-6.706-.851-2.94-3.903-4.702-6.82-3.936-2.915.766-4.588 3.769-3.737 6.708"></path>
        <path fill="#000" d="M157.222 123.887c.85 2.938 3.901 4.7 6.818 3.934 2.916-.766 4.589-3.768 3.739-6.706-.852-2.94-3.904-4.702-6.82-3.936-2.915.766-4.588 3.769-3.737 6.708"></path>
        <path fill="#BFBEBE" d="M85.33 337h196.34c3.562 0 6.665-2.014 8.33-5H77c1.665 2.986 4.768 5 8.33 5"></path>
        <path fill="#F7F0F0" d="M195.608 328h-23.217c-1.409 0-2.652-.397-3.391-1h30c-.74.603-1.982 1-3.392 1"></path>
        <path fill="#CECCCC" d="M198.461 327c-.737 1.124-1.977 1.863-3.383 1.863h-23.156c-1.406 0-2.646-.74-3.382-1.863H76c0 1.822.476 3.527 1.295 5h212.41a10.263 10.263 0 001.295-5h-92.539"></path>
        <path fill="#A0A0A0" d="M172.391 328h23.218c1.409 0 2.652-.397 3.391-1h-30c.739.603 1.982 1 3.391 1"></path>
        <path fill="#141313" d="M274 323.051a3.947 3.947 0 01-3.946 3.949H97.945A3.947 3.947 0 0194 323.051v-112.1A3.948 3.948 0 0197.945 207h172.11a3.948 3.948 0 013.945 3.95v112.101"></path>
        <path fill="#5B5A5A" d="M242 327L208.430528 327 143 207 155.510782 207 242 327"></path>
        <path fill="#434242" d="M269.053 327h-16.892L167 207h63.621L273 286.527v36.524a3.947 3.947 0 01-3.947 3.949m-86.072-116.99a1.269 1.269 0 100 2.537 1.269 1.269 0 000-2.538"></path>
        <path fill="#000" d="M185 211.5a1.5 1.5 0 11-3.001-.001 1.5 1.5 0 013.001 0"></path>
        <path fill="#333" d="M183.5 212a.5.5 0 110-1 .5.5 0 010 1"></path>
        <path fill="#373737" d="M102 318L262 318 262 217 102 217z"></path>
        <path fill="#C7C9C9" d="M102 223L262 223 262 215 102 215z"></path>
        <path fill="#6B6BD6" d="M109 220a2 2 0 11-4 0 2 2 0 014 0"></path>
        <path fill="#78C2C5" d="M115 220a2 2 0 11-4 0 2 2 0 014 0"></path>
        <path fill="#FCED7E" d="M122 220a2 2 0 11-3.999 0 2 2 0 013.999 0"></path>
        <path fill="#FFF" d="M137 231.5c0 1.38-.949 2.5-2.12 2.5h-11.76c-1.171 0-2.12-1.12-2.12-2.5s.949-2.5 2.12-2.5h11.76c1.171 0 2.12 1.12 2.12 2.5"></path>
        <path fill="#6DB5B5" d="M143 236.5c0 1.38-.95 2.5-2.12 2.5h-11.76c-1.171 0-2.12-1.12-2.12-2.5s.949-2.5 2.12-2.5h11.76c1.17 0 2.12 1.12 2.12 2.5"></path>
        <path fill="#FFF" d="M186 243.5c0 1.38-1.01 2.5-2.254 2.5h-44.493c-1.244 0-2.253-1.12-2.253-2.5s1.009-2.5 2.253-2.5h44.493c1.244 0 2.254 1.12 2.254 2.5"></path>
        <path fill="#66C" d="M209 249.5c0 1.38-1.005 2.5-2.245 2.5h-67.51c-1.24 0-2.245-1.12-2.245-2.5s1.005-2.5 2.245-2.5h67.51c1.24 0 2.245 1.12 2.245 2.5"></path>
        <path fill="#C7C9C9" d="M227 255.5c0 1.38-1.012 2.5-2.261 2.5h-85.478c-1.249 0-2.261-1.12-2.261-2.5s1.012-2.5 2.26-2.5h85.479c1.249 0 2.261 1.12 2.261 2.5"></path>
        <path fill="#6DB5B5" d="M158 262.5c0 1.381-1.023 2.5-2.285 2.5h-27.43c-1.262 0-2.285-1.119-2.285-2.5 0-1.38 1.023-2.5 2.285-2.5h27.43c1.262 0 2.285 1.12 2.285 2.5"></path>
        <path fill="#C7C9C9" d="M153 268.5c0 1.38-.949 2.5-2.12 2.5h-11.76c-1.171 0-2.12-1.12-2.12-2.5s.949-2.5 2.12-2.5h11.76c1.171 0 2.12 1.12 2.12 2.5"></path>
        <path fill="#FFF" d="M172 268.5c0 1.38-.95 2.5-2.12 2.5h-11.76c-1.17 0-2.12-1.12-2.12-2.5s.95-2.5 2.12-2.5h11.76c1.17 0 2.12 1.12 2.12 2.5"></path>
        <path fill="#66C" d="M166 273.5c0 1.38-1.022 2.5-2.282 2.5h-24.436c-1.26 0-2.282-1.12-2.282-2.5s1.021-2.5 2.282-2.5h24.436c1.26 0 2.282 1.12 2.282 2.5"></path>
        <path fill="#FFF" d="M178 279.5c0 1.38-1.027 2.5-2.294 2.5h-36.412c-1.267 0-2.294-1.12-2.294-2.5s1.027-2.5 2.294-2.5h36.412c1.267 0 2.294 1.12 2.294 2.5"></path>
        <path fill="#C7C9C9" d="M153 286.5c0 1.38-.949 2.5-2.12 2.5h-11.76c-1.171 0-2.12-1.12-2.12-2.5s.949-2.5 2.12-2.5h11.76c1.171 0 2.12 1.12 2.12 2.5"></path>
        <path fill="#6DB5B5" d="M153 292.5c0 1.38-.949 2.5-2.12 2.5h-11.76c-1.171 0-2.12-1.12-2.12-2.5s.949-2.5 2.12-2.5h11.76c1.171 0 2.12 1.12 2.12 2.5"></path>
        <path fill="#66C" d="M212 292.5c0 1.38-1.022 2.5-2.283 2.5h-52.434c-1.26 0-2.283-1.12-2.283-2.5s1.022-2.5 2.283-2.5h52.434c1.261 0 2.283 1.12 2.283 2.5"></path>
        <path fill="#FFF" d="M233 292.5c0 1.38-1.013 2.5-2.263 2.5h-15.474c-1.25 0-2.263-1.12-2.263-2.5s1.013-2.5 2.263-2.5h15.474c1.25 0 2.263 1.12 2.263 2.5"></path>
        <path fill="#C7C9C9" d="M143 298.5c0 1.38-.95 2.5-2.12 2.5h-11.76c-1.171 0-2.12-1.12-2.12-2.5s.949-2.5 2.12-2.5h11.76c1.17 0 2.12 1.12 2.12 2.5"></path>
        <path fill="#66C" d="M153 305.5c0 1.382-.949 2.5-2.12 2.5h-11.76c-1.171 0-2.12-1.118-2.12-2.5 0-1.38.949-2.5 2.12-2.5h11.76c1.171 0 2.12 1.12 2.12 2.5"></path>
        <path fill="#C7C9C9" d="M186 310.5c0 1.382-1.01 2.5-2.254 2.5h-44.493c-1.244 0-2.253-1.118-2.253-2.5s1.009-2.5 2.253-2.5h44.493c1.244 0 2.254 1.118 2.254 2.5"></path>
        <path fill="#EFC3AB" d="M288 282.279336L274 295 274 281 288 282.279336"></path>
        <path fill="#D0D0D0" d="M283 281.896379L275 281.441536 275.831739 281 283 281.896379"></path>
        <path fill="#DBB49E" d="M282.234428 287L273 283.906878 275.255105 282 282.312525 282.6391 286 283.373529 282.239574 286.995096 282.234126 287"></path>
        <path fill="#F2C5AD" d="M268.09 260.776c-3.896.431-17.365 1.437-17.365 1.437-2.21.261-3.964 2.261-3.698 4.427.258 2.102 2.162 3.62 4.297 3.467.064-.004 11.412-.8 11.477-.809-2.212.262-3.783 2.23-3.519 4.395.269 2.166 2.275 3.709 4.487 3.45-2.212.259-3.74 2.22-3.473 4.386.264 2.166 2.32 3.703 4.53 3.442l2.006-.242c.301-.028 3.435-.36 7.448-.784 4.335-.19 7.912-.286 10.135-.096l-.016.012c8.72.45 8.669-20.995.63-23.043-4.697-1.253-11.059-.904-16.94-.042"></path>
        <path fill="#F2C5AD" d="M123.562 323.589c.344-4.16.51-6.492.51-6.492.212-2.362 2.348-4.292 4.731-4.081 2.382.21 4.144 2.3 3.929 4.663.215-2.362 2.32-4.1 4.703-3.892 2.384.216 4.142 2.298 3.93 4.66.212-2.362 2.312-4.054 4.694-3.84 2.384.21 4.137 2.347 3.923 4.709l-.199 2.14c-.02.32-.281 3.666-.614 7.948-.067 4.621.24 6.19.24 6.2.78 9.263-22.735 9.921-25.245 1.432-1.528-4.952-1.355-7.162-.602-13.447"></path>
      </g>
    </g>
  </g>
</svg>
