<svg xmlns="http://www.w3.org/2000/svg" width="514" height="514" viewBox="0 0 514 514" style="width: 100%; height: 100%;"><g fill="none" stroke="none"><g transform="translate(-644 -146)"><g transform="translate(644 146)"><path fill="#9E9EE6" d="M0 514L514 514 514 0 0 0z"></path><g transform="translate(60.214 16)"><path fill="#8C6053" d="M101.758 129c-.814 0-1.635-.016-2.47-.05-10.96-.448-19.744-6.774-25.398-18.296-4.059-8.268-5.063-16.337-5.104-16.678l7.821-.969-3.91.485 3.91-.492c.007.071.918 7.21 4.42 14.257 4.352 8.76 10.603 13.366 18.577 13.691 21.216.869 34.727-11.475 34.86-11.6l5.322 5.905c-.623.58-15.038 13.747-38.028 13.747"></path><path fill="#373737" d="M77.786 38.384C77.85 59.647 60.665 76.937 39.401 77 18.138 77.064.85 59.878.786 38.616.723 17.353 17.907.064 39.17 0c21.264-.063 38.552 17.122 38.616 38.384"></path><path fill="#9B6D5C" d="M69.73 47.829c.82 11.378-7.547 21.278-18.686 22.115-11.14.835-20.832-7.711-21.65-19.09l-.552-7.683c-.82-11.378 7.548-21.279 18.687-22.115 11.139-.835 20.832 7.71 21.65 19.089l.552 7.684"></path><path fill="#9B6D5C" d="M32.771 50.098a5.5 5.5 0 11-5.889-5.083 5.502 5.502 0 015.89 5.083"></path><path fill="#373737" d="M38.786 22.776L44.438 31c.962-.472 2.317-1 3.348-1.352L43.271 21c-1.421.413-3.213 1.09-4.485 1.776"></path><path fill="#373737" d="M32.786 27.02L39.323 34c.82-.602 2.56-1.744 3.463-2.246L36.418 24c-1.19.812-2.649 1.986-3.632 3.02"></path><path fill="#373737" d="M45.786 20.344L49.2 29c.762-.238 1.796-.438 2.587-.595-.545-1.808-1.913-5.488-2.798-8.405-1.093.02-2.162.138-3.202.344"></path><path fill="#373737" d="M50.786 20l2.324 8c.088-.013.173-.028.26-.038.77-.096 1.503-.15 2.208-.167-.06-1.828.28-4.64.194-7.161-1.253-.258-3.616-.556-4.986-.634"></path><path fill="#373737" d="M29.786 32.513L37.588 36a22.742 22.742 0 012.198-1.798L32.173 29c-.874 1-1.772 2.368-2.387 3.513"></path><path fill="#373737" d="M27.786 40.087A20.293 20.293 0 0031.683 52c-.06-.626-.096-1.26-.098-1.901-.009-3.208.88-6.53 2.201-9.25L27.788 40l-.002.087"></path><path fill="#373737" d="M27.786 38.342L34.281 40c.63-.961 1.688-2.216 2.505-3.074L28.903 34c-.51 1.296-.965 2.935-1.117 4.342"></path><path fill="#373737" d="M63.786 31.916c1.667 1.08 3.572 2.648 5 4.084-.32-2.436-1.634-5.139-3.03-7l-1.97 2.916"></path><path fill="#373737" d="M61.813 24l-2.027 5.155c1.372.439 2.988 1.136 4.15 1.845l1.85-3.74c-1.035-1.155-2.594-2.38-3.973-3.26"></path><path fill="#373737" d="M56.788 22l-1.002 6.517c1.222.044 2.72.22 3.769.483.346-1.518.805-3.529 1.231-5.405A20.665 20.665 0 0056.788 22"></path><path fill="#9B6D5C" d="M49.109 20.006c-.108 0-.215.006-.323.007C49.81 22.785 51.39 26.282 52.02 28c.352-.058.411-.108.767-.153l-2.389-7.825c-.629-.034-.638-.019-1.288-.016"></path><path fill="#9B6D5C" d="M55.014 21c.097 2.464-.287 5.213-.22 7 .439-.008.448-.019.866-.005l1.126-6.593c-.733-.19-.994-.263-1.772-.402"></path><path fill="#9B6D5C" d="M60.191 23c-.486 1.992-1.01 4.127-1.405 5.74.46.107.546.121.982.26l2.018-5.123c-.612-.39-.92-.544-1.595-.877"></path><path fill="#9B6D5C" d="M65.793 27c-.69 1.51-1.394 3.043-2.007 4.377.462.303.474.284.91.623l2.09-3.711c-.433-.692-.473-.663-.993-1.289"></path><path fill="#9B6D5C" d="M42.786 20.358L47.894 29c.426-.129.457-.13.892-.242L44.59 20c-.78.127-1.054.165-1.804.358"></path><path fill="#9B6D5C" d="M36.786 23.807L43.057 31c.357-.187.36-.18.73-.352L38.22 23c-.619.315-.859.436-1.435.807"></path><path fill="#9B6D5C" d="M32.786 28.52L40.131 34c.324-.254.316-.263.655-.502L34.146 27c-.48.484-.936.99-1.36 1.52"></path><path fill="#9B6D5C" d="M28.786 33.461L36.2 37c.287-.389.276-.354.586-.724L29.316 32c-.293.698-.305.726-.53 1.461"></path><path fill="#9B6D5C" d="M27.786 40.061l5.589.939c.173-.422.218-.5.411-.91L27.868 38c-.052.68-.08 1.366-.082 2.061"></path><path fill="#FFF" d="M62.786 55l-17 .805s3.3 5.535 8.792 5.178c5.427-.353 8.05-4.819 8.208-5.983"></path><path fill="#000" d="M61.943 48.287c.482 1.31 1.92 2.02 3.214 1.585 1.294-.435 1.952-1.85 1.473-3.159-.482-1.31-1.92-2.02-3.215-1.585-1.293.435-1.952 1.85-1.472 3.16"></path><path fill="#000" d="M41.943 50.287c.482 1.31 1.92 2.02 3.214 1.585 1.294-.435 1.952-1.849 1.472-3.158-.481-1.311-1.92-2.021-3.214-1.586-1.294.435-1.952 1.849-1.472 3.16"></path><path fill="#FFF" d="M32.521 101.692l-11.735-4.136C21.705 86.288 32.885 73 50.761 73c17.877 0 29.107 13.288 30.025 24.556l-10.328 4.136v39.387L32.455 146l.066-44.308"></path><path fill="#9B6D5C" d="M42.787 73.878c1.048-.253 1.651-.356 2.945-.539l.671-7.065L53.894 66l.284 7.252c1.538.154 2.368.328 3.595.629.03.376 0 .7-.015 1.088-.183 4.637-3.682 8.23-7.813 8.023-4.132-.206-7.333-4.134-7.15-8.772.003-.076-.013-.268-.008-.342"></path><path fill="#141313" d="M140.786 124.584a1.41 1.41 0 01-1.403 1.416H78.19a1.41 1.41 0 01-1.404-1.416V84.416A1.41 1.41 0 0178.19 83h61.193a1.41 1.41 0 011.403 1.416v40.168"></path><path fill="#5B5A5A" d="M129.786164 126L117.917898 126 94.7861635 83 99.2088051 83 129.786164 126"></path><path fill="#434242" d="M139.371 126h-6.055l-30.53-43h22.807l15.193 28.496v13.088c0 .782-.633 1.416-1.415 1.416m-30.856-41.922a.455.455 0 100 .91.455.455 0 000-.91"></path><path fill="#373737" d="M79.7861635 122L136.786164 122 136.786164 86 79.7861635 86z"></path><path fill="#C7C9C9" d="M79.7861635 89L136.786164 89 136.786164 86 79.7861635 86z"></path><path fill="#6B6BD6" d="M82.786 87.5a.5.5 0 11-1 0 .5.5 0 011 0"></path><path fill="#78C2C5" d="M84.786 87.5a.5.5 0 11-1 0 .5.5 0 011 0"></path><path fill="#FCED7E" d="M86.786 87.5a.5.5 0 11-1 0 .5.5 0 011 0"></path><path fill="#FFF" d="M92.786 92c0 .552-.355 1-.795 1h-4.41c-.44 0-.795-.448-.795-1 0-.553.356-1 .795-1h4.41c.44 0 .795.447.795 1"></path><path fill="#6DB5B5" d="M94.786 94c0 .553-.356 1-.795 1h-4.41c-.439 0-.795-.447-.795-1 0-.552.356-1 .796-1h4.41c.438 0 .794.448.794 1"></path><path fill="#FFF" d="M108.786 96c0 .552-.35 1-.782 1H92.568c-.432 0-.782-.448-.782-1s.35-1 .782-1h15.436c.432 0 .782.448.782 1"></path><path fill="#66C" d="M117.786 98c0 .552-.363 1-.81 1H92.597c-.448 0-.81-.448-.81-1 0-.551.362-1 .81-1h24.379c.447 0 .81.449.81 1"></path><path fill="#C7C9C9" d="M123.786 100c0 .552-.36 1-.804 1H92.59c-.444 0-.804-.448-.804-1s.36-1 .804-1h30.392c.444 0 .804.448.804 1"></path><path fill="#6DB5B5" d="M99.786 103c0 .553-.351 1-.785 1h-9.429c-.434 0-.786-.447-.786-1 0-.553.352-1 .786-1h9.429c.434 0 .785.447.785 1"></path><path fill="#C7C9C9" d="M97.786 105c0 .553-.355 1-.795 1h-4.41c-.439 0-.795-.447-.795-1 0-.552.356-1 .795-1h4.41c.44 0 .795.448.795 1"></path><path fill="#FFF" d="M104.786 105c0 .553-.356 1-.795 1h-4.41c-.439 0-.795-.447-.795-1 0-.552.356-1 .795-1h4.41c.439 0 .795.448.795 1"></path><path fill="#66C" d="M102.786 107c0 .552-.352 1-.787 1h-8.426c-.434 0-.787-.448-.787-1s.353-1 .787-1h8.426c.435 0 .787.448.787 1"></path><path fill="#FFF" d="M106.786 109.002c0 .551-.375.998-.84.998h-13.32c-.464 0-.84-.447-.84-.998 0-.553.376-1.002.84-1.002h13.32c.465 0 .84.449.84 1.002"></path><path fill="#C7C9C9" d="M97.786 111c0 .553-.355 1-.795 1h-4.41c-.439 0-.795-.447-.795-1 0-.552.356-1 .795-1h4.41c.44 0 .795.448.795 1"></path><path fill="#6DB5B5" d="M97.786 114c0 .553-.355 1-.795 1h-4.41c-.439 0-.795-.447-.795-1 0-.552.356-1 .795-1h4.41c.44 0 .795.448.795 1"></path><path fill="#66C" d="M118.786 114c0 .553-.358 1-.8 1H99.586c-.442 0-.8-.447-.8-1 0-.552.358-1 .8-1h18.398c.443 0 .801.448.801 1"></path><path fill="#C7C9C9" d="M94.786 116c0 .551-.356 1-.795 1h-4.41c-.439 0-.795-.449-.795-1 0-.553.356-1 .796-1h4.41c.438 0 .794.447.794 1"></path><path fill="#66C" d="M97.786 118c0 .553-.355 1-.795 1h-4.41c-.439 0-.795-.447-.795-1 0-.552.356-1 .795-1h4.41c.44 0 .795.448.795 1"></path><path fill="#000" d="M109.786 84.5a.5.5 0 11-1.001 0 .5.5 0 011.001 0"></path><path fill="#333" d="M109.286 84.724a.224.224 0 010-.448.224.224 0 010 .448"></path><path fill="#9B6D5C" d="M94.786 114.968a1.081 1.081 0 00-1.41-1.02 1.05 1.05 0 00.102-.448 1.08 1.08 0 00-1.473-1c.024-.088.041-.18.041-.275a1.08 1.08 0 00-1.314-1.049l2.742-2.153a.956.956 0 00.155-1.358.993.993 0 00-1.38-.154l-3.893 3.071c-3.253 2.547-15.844 11.316-34.165 10.59-8.008-.316-14.284-4.794-18.655-13.31-1.193-2.323-1.888-4.589-2.548-6.66L23.786 98c.655 3.077 2.006 8.082 4.583 13.165 5.678 11.2 14.498 17.35 25.504 17.786.838.033 1.663.049 2.48.049 21.625 0 35.695-11.232 37.902-13.116.317-.188.531-.526.531-.916"></path></g><path fill="#7878E8" d="M257.992 426.68c-136.457 0-247.077-8.417-247.077-18.8 0-3.128 10.041-6.077 27.797-8.672a18.741 18.741 0 0011.684 4.067h412.619c4.594 0 8.798-1.646 12.066-4.38 19.123 2.67 29.988 5.73 29.988 8.985 0 10.383-110.62 18.8-247.077 18.8"></path><path fill="#FFF" d="M218.301 167.67c1.117-13.626 14.937-29.743 36.68-29.743 21.744 0 35.631 16.141 36.749 29.768l-73.429-.025"></path><path fill="#FCCFB2" d="M248.07 138.739c1.25-.279 1.965-.41 3.505-.612l.8-7.834 8.92-.305.338 8.041c1.833.172 2.82.365 4.281.699.038.417.002.775-.017 1.206-.218 5.144-4.384 9.128-9.305 8.898-4.919-.228-8.731-4.584-8.513-9.727.004-.085-.014-.282-.008-.366"></path><path fill="#FCCFB2" d="M288.753 105.214a6.945 6.945 0 11-13.892-.065 6.946 6.946 0 1113.892.064"></path><path fill="#FCCFB2" d="M282.8 105.317c.009 14.711-11.606 26.646-25.782 26.656-14.177.009-25.807-11.91-25.817-26.622l.398-7.231c-.01-14.711 11.202-26.666 25.378-26.676 14.177-.01 25.482 11.787 25.491 26.5l.331 7.373"></path><path fill="#FCCFB2" d="M239.139 106.206a6.947 6.947 0 11-13.893-.066 6.947 6.947 0 0113.893.066"></path><path fill="#D5B09E" d="M282.807 104.676l-.113-2.466.068-.005c.002.226.018.46.044.701v1.77"></path><path fill="#D5B09E" d="M257.38 130.98c-11.259 0-20.884-7.68-24.195-18.297a6.642 6.642 0 003.626-1.667c1.383 2.706 3.68 5.06 7.486 5.06l.213-.003c3.232-.073 7.484-4.397 13.09-4.478l.171-.001c2.883 0 5.25 1.055 7.317 2.111 2.069 1.056 3.839 2.112 5.526 2.112h.008c9.16-.015 9.371-13.404 9.371-13.404l2.701-.208.105 2.354a27.27 27.27 0 01-.934 7.117c-2.998 11.128-12.862 19.297-24.469 19.305h-.016"></path><path fill="#D5B09E" d="M232.708 113.12a23.077 23.077 0 01-1.506-8.176l-.001-1.22c.009-.178.012-.354.009-.527l3.404.185s.245 4.353 2.54 8.053c-1.213.903-2.75 1.509-4.446 1.685"></path><path fill="#000" d="M231.355 92.88c.515-7.925 7.12-21.632 25.185-22.428 18 .607 25.454 13.859 26.054 21.778.193 2.551.205 10.132.205 10.132l-2.807.21c-.001 0 1.061-23.345-13.315-19.31-3.194.897-7.061 1.806-9.98 1.857-3.144-.007-6.327-.506-9.53-1.37-14.418-3.886-13.139 19.448-13.139 19.448l-2.827-.18s-.012-7.585.154-10.137"></path><path fill="#000" d="M248.929 106.964c-.485 1.585-2.152 2.516-3.722 2.079-1.57-.437-2.45-2.074-1.966-3.66.485-1.584 2.15-2.515 3.721-2.079 1.57.438 2.451 2.076 1.967 3.66"></path><path fill="#000" d="M273.736 106.965c-.486 1.584-2.15 2.515-3.722 2.078-1.57-.437-2.45-2.075-1.966-3.659.486-1.585 2.15-2.516 3.722-2.08 1.57.437 2.45 2.076 1.966 3.66"></path><path fill="#FFF" d="M248.07 116.408l17.86-.311s-2.68 5.176-7.13 5.846c-6.044.91-10.453-4.225-10.73-5.535"></path><path fill="#000" d="M236.863 80.425l3.91 3.906s24.695 4.158 36.513.475c5.712-1.781 7.07-3.864 10.475-15.025-13.345 4.678-14.117 5.67-14.117 5.67s6.603-6.714 12.415-9.215c-6.537-3.012-18.267-2.377-24.992 1.69.407-1.438 2.094-3.358 10.712-6.339-7.62-.34-26.94.28-29.55 10.726 0 0-2.637-1.045-.213-4.688-4.18 1.417-9.669 5.438-5.153 12.8"></path><path fill="#CECCCC" d="M51.048 402.865H462.95c6.976 0 13.056-3.996 16.32-9.923H34.73c3.262 5.927 9.34 9.923 16.318 9.923"></path><path fill="#8BBFC2" d="M280.15 386.988h-45.308c-2.75 0-5.176-1.572-6.618-3.969h58.544c-1.442 2.397-3.868 3.97-6.618 3.97"></path><path fill="#DDD" d="M286.88 383.02c-1.448 2.23-3.884 3.695-6.644 3.695h-45.48c-2.76 0-5.195-1.464-6.642-3.696H32.745c0 3.618.935 7.001 2.544 9.923h444.415a20.51 20.51 0 002.543-9.923H286.88"></path><path fill="#A0A0A0" d="M234.842 386.988h45.308c2.75 0 5.176-1.572 6.618-3.969h-58.544c1.442 2.397 3.868 3.97 6.618 3.97"></path><path fill="#141313" d="M434.618 375.246c0 4.293-3.486 7.773-7.789 7.773H87.17c-4.3 0-7.787-3.48-7.787-7.773V154.63c0-4.293 3.487-7.773 7.787-7.773h339.66c4.303 0 7.789 3.48 7.789 7.773v220.616"></path><path fill="#5A5959" d="M372.104247 383.019305L306.830572 383.019305 179.602317 146.857143 203.930541 146.857143 372.104247 383.019305"></path><path fill="#434242" d="M425.866 383.02h-33.208l-167.41-236.163h125.067l83.31 156.51v71.88c0 4.292-3.473 7.772-7.76 7.772M256.663 152.78a2.495 2.495 0 00-2.493 2.499 2.496 2.496 0 002.493 2.498 2.497 2.497 0 002.494-2.498 2.496 2.496 0 00-2.494-2.499"></path><path fill="#000" d="M259.977 155.788a2.977 2.977 0 11-5.955-.002 2.977 2.977 0 015.955.002"></path><path fill="#333" d="M257.496 156.78a.496.496 0 110-.992.496.496 0 010 .992"></path><path fill="#FFF" d="M99.2277992 366.150579L414.772201 366.150579 414.772201 165.710425 99.2277992 165.710425z"></path><g fill="#61DAFB" transform="translate(202.927 184)"><path d="M108.073 48.011c0-7.141-8.96-13.909-22.696-18.106 3.17-13.975 1.761-25.093-4.447-28.653C79.5.417 77.826.022 76 .022v4.9c1.013 0 1.827.198 2.51.571 2.993 1.714 4.292 8.24 3.28 16.634-.243 2.065-.639 4.24-1.123 6.46-4.315-1.055-9.026-1.868-13.979-2.395-2.972-4.065-6.054-7.757-9.158-10.987C64.706 8.547 71.442 4.9 76.021 4.9V0c-6.054 0-13.979 4.307-21.992 11.778C46.016 4.35 38.091.088 32.037.088v4.9c4.557 0 11.315 3.625 18.492 10.24-3.082 3.23-6.164 6.899-9.092 10.964-4.975.527-9.686 1.34-14 2.417a66.178 66.178 0 01-1.145-6.372c-1.035-8.394.242-14.92 3.214-16.656.66-.395 1.519-.571 2.531-.571V.11c-1.849 0-3.522.395-4.975 1.23-6.186 3.56-7.573 14.656-4.38 28.587C8.988 34.146.072 40.892.072 48.011c0 7.141 8.96 13.909 22.696 18.106-3.17 13.975-1.76 25.093 4.447 28.653 1.431.834 3.104 1.23 4.953 1.23 6.054 0 13.98-4.307 21.992-11.778 8.013 7.427 15.938 11.69 21.992 11.69 1.85 0 3.522-.395 4.975-1.23 6.186-3.56 7.573-14.656 4.38-28.587 13.65-4.197 22.565-10.965 22.565-18.084zM79.411 33.355c-.814 2.835-1.827 5.757-2.972 8.68a103.928 103.928 0 00-2.884-5.274c-1.012-1.758-2.09-3.472-3.17-5.142a99.499 99.499 0 019.026 1.736zM69.33 56.756c-1.717 2.967-3.478 5.78-5.306 8.394-3.28.286-6.604.44-9.95.44-3.324 0-6.648-.154-9.906-.418a121.095 121.095 0 01-5.327-8.35 114.38 114.38 0 01-4.58-8.745 114.505 114.505 0 014.558-8.767c1.717-2.967 3.478-5.78 5.305-8.394 3.28-.286 6.604-.44 9.95-.44 3.324 0 6.648.154 9.906.418a121.095 121.095 0 015.328 8.35 114.38 114.38 0 014.579 8.745 122.945 122.945 0 01-4.557 8.767zm7.11-2.856a94.049 94.049 0 013.038 8.745 98.963 98.963 0 01-9.07 1.758c1.08-1.692 2.158-3.428 3.17-5.208A124.736 124.736 0 0076.44 53.9zM54.117 77.345a90.636 90.636 0 01-6.12-7.031c1.982.087 4.007.153 6.054.153 2.07 0 4.117-.044 6.12-.153a85.81 85.81 0 01-6.054 7.03zM37.74 64.403a99.499 99.499 0 01-9.026-1.736c.815-2.835 1.827-5.757 2.972-8.68.903 1.758 1.85 3.516 2.884 5.274a145.481 145.481 0 003.17 5.142zm16.268-45.726a90.636 90.636 0 016.12 7.031 136.528 136.528 0 00-6.054-.153c-2.07 0-4.116.044-6.12.153a85.81 85.81 0 016.054-7.031zm-16.29 12.942c-1.079 1.692-2.157 3.428-3.17 5.208a124.053 124.053 0 00-2.862 5.273 94.05 94.05 0 01-3.038-8.745 107.088 107.088 0 019.07-1.736zM17.794 59.13C10.001 55.811 4.96 51.461 4.96 48.011s5.041-7.822 12.834-11.118c1.894-.813 3.963-1.538 6.098-2.22 1.255 4.307 2.906 8.79 4.953 13.382-2.025 4.57-3.654 9.03-4.887 13.316a66.954 66.954 0 01-6.164-2.242zm11.844 31.4c-2.994-1.714-4.293-8.24-3.28-16.634.242-2.065.638-4.24 1.122-6.46 4.315 1.055 9.026 1.868 13.98 2.395 2.971 4.065 6.053 7.757 9.157 10.987-7.177 6.657-13.913 10.305-18.492 10.305-.99-.022-1.827-.22-2.487-.593zm52.217-16.744c1.034 8.394-.243 14.92-3.214 16.656-.66.395-1.52.571-2.532.571-4.557 0-11.315-3.625-18.492-10.24 3.082-3.23 6.164-6.899 9.092-10.964 4.975-.527 9.686-1.34 14-2.417.507 2.22.903 4.35 1.146 6.394zM90.33 59.13c-1.893.813-3.963 1.538-6.098 2.22-1.255-4.307-2.906-8.79-4.953-13.382 2.025-4.57 3.654-9.03 4.887-13.316a69.905 69.905 0 016.186 2.242c7.793 3.318 12.834 7.668 12.834 11.118-.022 3.45-5.063 7.822-12.856 11.118z"></path><circle cx="53.073" cy="48" r="10"></circle></g><path fill="#1F5F93" d="M162.733591 376.073359L201.432432 376.073359 190.933561 362.181467 162.733591 362.181467 162.733591 376.073359"></path><path fill="#1F5F93" d="M223.015 351.057l11.163-.026-.128-26.016c.087-9.692-5.68-14.244-10.653-15.197-6.654-1.279-13.436 2.95-16.12 10.053-3.907 10.103-13.743 35.951-18.744 49.213l10.43 4.013c4.993-13.242 14.712-39.045 18.625-49.165 1.474-3.677 5.292-3.46 5.292 1.001v.073l.135 26.05"></path><path fill="#2B72B6" d="M174.47 363.174v2.67c0 3.604 2.417 5.495 5.77 5.925h20.501c7.12 0 12.599 6.122 12.599 13.286v45.594h-11.96v-45.594c0-.477-.165-.822-.639-.822h-41.157c-5.705 0-10.742-4.701-10.742-10.442v-10.617h25.628"></path><path fill="#FCCFB2" d="M222.27027 369.127413L233.185328 369.127413 233.185328 355.235521 222.27027 355.235521z"></path><path fill="#FFF" d="M221.293 367.666l8.439-.06c0-2.36 1.726-4.256 4.299-4.432v4.432s13.291 7.972 18.008 11.369v4.044h-34.73v-3.692l3.984-11.66"></path><path fill="#80B3DD" d="M218.301158 354.243243L236.162162 354.243243 236.162162 348.289575 218.301158 348.289575z"></path><path fill="#FCCFB2" d="M202.42471 445.532819L213.339768 445.532819 213.339768 431.640927 202.42471 431.640927z"></path><path fill="#FFF" d="M202.162 444.897h.788c0-2.45 1.78-4.326 4.34-4.326 2.47 0 4.341 2.108 4.341 4.456l.563.053 4.123 11.661v3.676h-18.798l-.056-3.676 4.7-11.844"></path><path fill="#80B3DD" d="M198.455598 432.633205L216.316602 432.633205 216.316602 426.679537 198.455598 426.679537z"></path><path fill="#FCCFB2" d="M123.275 386.988c.046-.032 4.615-3.25 9.289-1.955 2.59.718 6.246 1.08 8.952-1.271 2.558-2.223 2.583-5.366 2.45-6.73l2.891-58.128-8.614-.383-2.912 58.567c-.12-.028-.254-.062-.399-.102-8.871-2.46-16.53 3.085-16.85 3.322l5.217 6.663-.024.017"></path><path fill="#FCCFB2" d="M199.965 326.46c2.925 0 6.896-1.872 14.138-5.411 4.43-2.166 12.606-6.162 15.06-6.162.047 0 .092 0 .134.004 2.66.295 5.125 4.497 5.84 6.369l7.971-2.881c-.42-1.1-4.344-10.768-12.859-11.711-4.309-.483-10.418 2.32-19.963 6.985-3.154 1.542-7.284 3.56-9.412 4.279-.939-1.199-2.333-3.403-3.328-4.98-1.375-2.173-2.796-4.422-4.21-6.246l-6.788 4.986c1.171 1.51 2.484 3.587 3.754 5.596 3.384 5.354 5.426 8.586 8.709 9.1.307.047.624.071.954.071"></path><path fill="#373737" d="M169.002 289.745c7.35 0 13.67 2.093 18.766 5.365 7.103 4.075 11.897 10.457 13.664 16.834l-10.951 6.542v44.688h-41.89v-41.347l-12.649-4.624c1.008-12.6 13.441-27.458 33.06-27.458"></path><path fill="#000" d="M199.836 264.97c-1.395-9.026-5.655-33.108-28.281-34.682v-.053c0-.005.044-.011-.083-.015a28.75 28.75 0 00-1.327-.007 30.26 30.26 0 00-1.36.007 1.35 1.35 0 00-.219.015v.05c-22.626 1.545-26.7 25.653-28.097 34.684-1.286 10.022.053 22.624.053 22.624 38.63 4.843 59.433 0 59.433 0s1.167-12.603-.119-22.624"></path><path fill="#FCCFB2" d="M160.75 291.075c1.18-.264 1.857-.374 3.312-.566l.756-7.422 8.422-.288.32 7.618c1.73.162 2.663.345 4.043.661.034.396 0 .736-.016 1.143-.206 4.874-4.141 8.647-8.787 8.43-4.647-.217-8.246-4.343-8.04-9.216.004-.08-.015-.28-.01-.36"></path><path fill="#FCCFB2" d="M191.507 264.24c.201 12.24-9.598 22.324-21.89 22.525-12.29.201-22.418-9.557-22.62-21.796l-.137-8.263c-.202-12.239 9.597-22.323 21.888-22.525 12.292-.202 22.42 9.556 22.622 21.795l.137 8.265"></path><path fill="#FCCFB2" d="M154.795 263.848a5.953 5.953 0 01-5.854 6.05 5.954 5.954 0 115.853-6.05"></path><path fill="#000" d="M152.7 285.432l-5.557 1.336s-.854-22.493.391-34.739c0 0 2.617-12.405 5.698-14.98 3.98-3.325 20.417-3.864 20.417-3.864s-19.543 7.497-20.95 52.247"></path><path fill="#000" d="M171.664 236.42l25.463 41.418s2.26-19.511-4.94-29.503c-10.795-14.98-20.523-11.914-20.523-11.914"></path><path fill="#000" d="M163.571 264.797c-.521 1.576-2.206 2.471-3.765 2-1.56-.47-2.4-2.128-1.88-3.703.522-1.575 2.208-2.47 3.766-2 1.56.471 2.401 2.129 1.88 3.703"></path><path fill="#000" d="M183.416 264.797c-.52 1.575-2.206 2.471-3.765 2-1.558-.47-2.4-2.127-1.88-3.702.523-1.575 2.21-2.471 3.769-2 1.558.47 2.399 2.127 1.876 3.702"></path><path fill="#FFF" d="M163.726 271.884l16.869.063s-2.647 5.221-6.863 5.81c-5.727.799-9.774-4.533-10.006-5.873"></path><path fill="#EE509C" d="M144.08 255.015c-1.458-7.023 5.533-26.922 5.756-34.333.161-5.365 4.649-7.307 7.885-7.985 4.116-.863 9.551-.284 11.518 3.518 2.43 4.703 8.288 9.014 9.988 10.302 5.194 3.932 12.825 12.467 14.267 19.41l-49.414 9.088"></path><path fill="#D84C96" d="M197.456 249.67c.067.428-.356.784-.827.849l-55.668 8.454c-.47.066-.984-.158-1.05-.585l.408-9.746c-.067-.428.357-.783.827-.848l51.35-7.651c.47-.066.983.157 1.05.585l3.91 8.943"></path><path fill="#864F17" d="M324.699 248.39c1.668-9.444 8.08-18.964 23.406-20.082v-.056c0-.005.37-.012.501-.016a38.013 38.013 0 011.594-.007 42.113 42.113 0 011.677.007c.134.004.485.01.485.016v.053c17.029 1.191 22.902 9.305 24.243 19.947 1.509 11.972 1.504 58.189 1.426 63.343-1.55 8.028-5.22 8.983-10.163 13.95-4.898 4.922-11.105 7.86-17.831 7.86-6.562 0-12.62-2.797-17.46-7.504-4.628-4.5-8.245-10.745-10.056-17.964-.097-6.467-.1-46.658 2.178-59.548"></path><path fill="#246591" d="M328.095 363.174v2.65c0 3.578-2.35 5.456-5.709 5.882h-24.94c-7.15 0-12.662 6.077-12.662 13.19v66.59h12.007v-66.59c0-.475.178-.817.655-.817h62.088c5.728 0 10.586-4.667 10.586-10.366v-10.54h-42.025"></path><path fill="#2B72B6" d="M344.491 363.174v2.65c0 3.578-2.219 5.456-5.57 5.882h-20.503c-7.12 0-12.796 6.077-12.796 13.19v66.59h11.96v-66.59c0-.475.363-.817.836-.817h41.157c5.706 0 10.545-4.667 10.545-10.366v-10.54H344.49"></path><path fill="#FFF" d="M268.907336 461.409266L299.667954 461.409266 299.667954 456.447876 268.907336 456.447876z"></path><path fill="#EE509C" d="M284.451 435.359v-4.71c2.079.168 3.848 2.004 3.848 4.288l9.04.059v11.251l2.329 10.2H269.9v-2.261c3.326-2.828 12.163-7.352 14.37-8.504l.181-10.323"></path><path fill="#FFF" d="M289.745 440.574a2.977 2.977 0 105.955-.006 2.977 2.977 0 00-5.955.006"></path><path fill="#FFF" d="M302.644788 461.409266L320.505792 461.409266 320.505792 456.447876 302.644788 456.447876z"></path><path fill="#EE509C" d="M305.9 434.912l1.711.038c0-2.388 1.63-4.128 3.924-4.301 2.294.173 3.98 2.01 3.98 4.3l1.765-.02v11.286l3.226 10.233h-17.861l3.255-10.233v-11.303"></path><path fill="#FAC3A9" d="M394.694 385.996c-.046-.033-4.615-3.271-9.289-1.967-2.59.722-6.246 1.087-8.952-1.28-2.558-2.236-2.583-5.399-2.45-6.772l-2.891-58.062 8.614-.386 2.911 58.504c.121-.028.255-.062.4-.102 8.87-2.475 16.529 3.104 16.851 3.343l-5.218 6.705.024.017"></path><path fill="#FAC3A9" d="M303.927 341.344c-7.59 0-14.59-4.654-19.712-12.71-4.752-7.477-7.37-16.827-7.37-27.974h8.351c0 17.577 8.578 32.04 18.731 32.04 7.526 0 14.515-7.984 17.391-20.028l8.118 2.028c-1.785 7.478-4.98 13.955-9.237 18.676-4.684 5.195-10.31 7.968-16.272 7.968"></path><path fill="#373737" d="M370.358 321.827l12.661-4.624c-1-12.6-13.25-27.458-32.734-27.458-19.485 0-31.755 14.858-32.756 27.458l11.227 4.624v41.347h41.602v-41.347"></path><path fill="#FAC3A9" d="M359.204 291.075c-1.18-.264-1.858-.374-3.312-.566l-.756-7.422-8.423-.288-.32 7.618c-1.73.162-2.663.345-4.042.661-.035.396-.001.736.016 1.143.206 4.874 4.14 8.647 8.787 8.43 4.646-.217 8.246-4.343 8.04-9.216-.004-.08.015-.28.01-.36"></path><path fill="#FAC3A9" d="M326.463 261.83c-.211 12.47 10.024 22.745 22.862 22.95 12.837.206 23.416-9.736 23.627-22.206l.141-8.42c.212-12.47-10.023-22.745-22.861-22.95-12.838-.205-23.416 9.737-23.627 22.207l-.142 8.42"></path><path fill="#7F5124" d="M326.328 230.83c0-.001-.975 3.76.936 7.024 4.068 6.95 14.583 16.87 28.776 20.16 0 0 2.365-40.908-29.712-27.185" transform="matrix(-1 0 0 1 682.158 0)"></path><path fill="#FAC3A9" d="M366.151 262.352a6.45 6.45 0 1012.896.21 6.45 6.45 0 00-12.896-.21"></path><path fill="#000" d="M354.398 263.806c.521 1.574 2.207 2.47 3.765 2 1.56-.47 2.4-2.129 1.88-3.704-.522-1.575-2.208-2.47-3.767-2-1.559.47-2.4 2.129-1.878 3.704"></path><path fill="#000" d="M333.56 263.806c.522 1.574 2.207 2.469 3.766 2 1.558-.471 2.4-2.129 1.879-3.703-.522-1.575-2.209-2.471-3.767-2.001-1.559.47-2.4 2.128-1.878 3.704"></path><path fill="#FFF" d="M355.236 271.884l-16.87.063s2.647 5.221 6.863 5.81c5.728.8 9.774-4.533 10.007-5.873"></path><path fill="#864F17" d="M359.205 247.077s8.82 17.969 10.446 37.707l3.752-.565s1.883-24.574-.593-37.142h-13.605"></path><path fill="#DD4595" d="M395.919 244.072c.004 1.631-1.162 2.957-2.604 2.96l-21.569.045c-1.442.003-2.615-1.317-2.619-2.949-.004-1.631 1.162-2.956 2.605-2.96l21.568-.044c1.443-.004 2.616 1.317 2.619 2.948"></path><path fill="#EE509C" d="M376.073 246.963l-52.59.114c-.03-12.57 10.388-22.78 23.198-22.808l6.147-.014c12.809-.029 23.217 10.138 23.245 22.708"></path><path fill="#864F17" d="M348.29 244.1l-13.89-.053c-.074-3.27 2.613-5.913 5.999-5.9l1.626.006c3.387.013 6.192 2.676 6.265 5.947"></path><path fill="#FCCFB2" d="M223.263 149.338c0 3.014-3.776 5.457-8.435 5.457-4.658 0-8.434-2.443-8.434-5.457s3.776-5.458 8.434-5.458c4.659 0 8.435 2.444 8.435 5.458"></path><path fill="#FCCFB2" d="M305.622 149.338c0 3.014-3.776 5.457-8.435 5.457-4.658 0-8.434-2.443-8.434-5.457s3.776-5.458 8.434-5.458c4.659 0 8.435 2.444 8.435 5.458"></path></g></g></g></svg>
