<?xml version="1.0" encoding="UTF-8"?>
<svg width="800px" height="446px" viewBox="0 0 800 446" version="1.1" xmlns="http://www.w3.org/2000/svg" xmlns:xlink="http://www.w3.org/1999/xlink">
    <title>react-components@1.5x</title>
    <defs>
        <linearGradient x1="100%" y1="50%" x2="-1.11022302e-14%" y2="50%" id="linearGradient-1">
            <stop stop-color="#08AEEA" offset="0%"></stop>
            <stop stop-color="#2AF598" offset="100%"></stop>
        </linearGradient>
        <rect id="path-2" x="150" y="223" width="500" height="170" rx="7"></rect>
        <filter x="-2.9%" y="-7.4%" width="105.8%" height="117.1%" filterUnits="objectBoundingBox" id="filter-3">
            <feOffset dx="0" dy="2" in="SourceAlpha" result="shadowOffsetOuter1"></feOffset>
            <feGaussianBlur stdDeviation="4.5" in="shadowOffsetOuter1" result="shadowBlurOuter1"></feGaussianBlur>
            <feColorMatrix values="0 0 0 0 0.0431372549   0 0 0 0 0.709803922   0 0 0 0 0.882352941  0 0 0 1 0" type="matrix" in="shadowBlurOuter1"></feColorMatrix>
        </filter>
    </defs>
    <g id="react-components" stroke="none" stroke-width="1" fill="none" fill-rule="evenodd">
        <rect fill="#1F2026" x="0" y="0" width="800" height="446"></rect>
        <g id="Rectangle">
            <use fill="black" fill-opacity="1" filter="url(#filter-3)" xlink:href="#path-2"></use>
            <use fill="url(#linearGradient-1)" fill-rule="evenodd" xlink:href="#path-2"></use>
        </g>
        <rect id="Rectangle" stroke="#FFFFFF" stroke-width="3" fill="#ED1E90" x="482" y="242" width="142" height="42"></rect>
        <rect id="Rectangle" fill="#ED1E90" x="592" y="86" width="142" height="42"></rect>
        <rect id="Rectangle" stroke="#FFFFFF" stroke-width="3" fill="#0091FF" x="224" y="252" width="83" height="21"></rect>
        <g id="Group" transform="translate(170.000000, 309.000000)" fill="#FA6400" stroke="#FFFFFF" stroke-width="2">
            <rect id="Rectangle" x="0" y="0" width="454" height="10"></rect>
            <rect id="Rectangle" x="0" y="21" width="454" height="10"></rect>
            <rect id="Rectangle" x="0" y="42" width="289" height="10"></rect>
        </g>
        <g id="Group" transform="translate(359.000000, 100.931718)" fill="#FA6400">
            <rect id="Rectangle" x="0" y="0.0682819383" width="202" height="4"></rect>
            <rect id="Rectangle" x="0" y="10.0682819" width="202" height="4"></rect>
            <rect id="Rectangle" x="0" y="19.0682819" width="128" height="4"></rect>
        </g>
        <circle id="Oval" stroke="#FFFFFF" stroke-width="3" fill="#32C5FF" cx="192" cy="254" r="22"></circle>
        <rect id="Rectangle" fill="#0091FF" x="192" y="97" width="123" height="31"></rect>
        <circle id="Oval" fill="#32C5FF" cx="104.5" cy="112.5" r="39.5"></circle>
        <path d="M223.895464,50 L223.895,40.398 L226.629,40.398 L231.736373,50 L240.315918,50 L234.409,39.156 C235.810456,38.4818822 236.932617,37.5454335 237.775483,36.346654 L237.965066,36.0653409 C238.888362,34.6354167 239.350009,32.8787879 239.350009,30.7954545 C239.350009,28.7310606 238.900199,26.9602273 238.000577,25.4829545 C237.100956,24.0056818 235.841487,22.874053 234.222168,22.0880682 C232.60285,21.3020833 230.713646,20.9090909 228.554555,20.9090909 L228.554555,20.9090909 L215.997737,20.9090909 L215.997737,50 L223.895464,50 Z M223.895464,27.2159091 L226.679555,27.2159091 C227.607585,27.2159091 228.400672,27.3413826 229.058816,27.5923295 C229.71696,27.8432765 230.223589,28.2315341 230.578702,28.7571023 C230.933816,29.2826705 231.111373,29.9621212 231.111373,30.7954545 C231.111373,31.6193182 230.933816,32.2869318 230.578702,32.7982955 C230.223589,33.3096591 229.71696,33.6813447 229.058816,33.9133523 C228.400672,34.1453598 227.607585,34.2613636 226.679555,34.2613636 L226.679555,34.2613636 L223.895,34.262 L223.895464,27.2159091 Z M252.151429,50.3977273 C254.168474,50.3977273 255.932205,50.0923295 257.442622,49.4815341 C258.953038,48.8707386 260.167527,48.0089962 261.086088,46.8963068 C262.004648,45.7836174 262.587035,44.469697 262.833247,42.9545455 L262.833247,42.9545455 L255.674156,42.9545455 C255.522641,43.3617424 255.285898,43.7097538 254.963929,43.9985795 C254.641959,44.2874053 254.256069,44.5075758 253.806258,44.6590909 C253.356448,44.8106061 252.861656,44.8863636 252.321883,44.8863636 C251.545368,44.8863636 250.882489,44.7301136 250.333247,44.4176136 C249.784004,44.1051136 249.362603,43.6742424 249.069042,43.125 C248.775482,42.5757576 248.628701,41.9507576 248.628701,41.25 L248.628701,41.25 L248.628,40.91 L262.833247,40.9090909 L262.833247,39.0909091 C262.833247,37.3579545 262.577565,35.8001894 262.066201,34.4176136 C261.554838,33.0350379 260.825671,31.858428 259.878701,30.8877841 C258.931732,29.9171402 257.790633,29.1761364 256.455406,28.6647727 C255.120179,28.1534091 253.628701,27.8977273 251.980974,27.8977273 C249.727186,27.8977273 247.771694,28.3664773 246.114497,29.3039773 C244.4573,30.2414773 243.174156,31.5530303 242.265065,33.2386364 C241.355974,34.9242424 240.901429,36.8939394 240.901429,39.1477273 C240.901429,41.4962121 241.353607,43.5108902 242.257963,45.1917614 C243.162319,46.8726326 244.454932,48.1605114 246.135804,49.0553977 C247.816675,49.9502841 249.821883,50.3977273 252.151429,50.3977273 Z M248.628701,36.5909091 C248.647641,35.9564394 248.815728,35.4024621 249.132963,34.9289773 C249.450198,34.4554924 249.873966,34.0838068 250.404269,33.8139205 C250.934573,33.5440341 251.516959,33.4090909 252.151429,33.4090909 C252.804838,33.4090909 253.389591,33.5440341 253.90569,33.8139205 C254.421788,34.0838068 254.83372,34.4578598 255.141485,34.9360795 C255.449251,35.4142992 255.607868,35.9659091 255.617338,36.5909091 L255.617338,36.5909091 L248.628701,36.5909091 Z M271.430121,50.3409091 C272.37709,50.3409091 273.245935,50.2272727 274.036655,50 C274.827374,49.7727273 275.532867,49.4081439 276.153132,48.90625 C276.773397,48.4043561 277.301333,47.7462121 277.736939,46.9318182 L277.736939,46.9318182 L277.907393,46.9318182 L277.907393,50 L285.236939,50 L285.236939,35.0568182 C285.236939,34.0435606 285.007299,33.1036932 284.548018,32.2372159 C284.088738,31.3707386 283.423492,30.6131629 282.55228,29.9644886 C281.681068,29.3158144 280.625196,28.8091856 279.384666,28.4446023 C278.144136,28.0800189 276.742621,27.8977273 275.180121,27.8977273 C273.01156,27.8977273 271.202848,28.2362689 269.753984,28.9133523 C268.305121,29.5904356 267.204268,30.4900568 266.451427,31.6122159 C265.698587,32.734375 265.274818,33.9583333 265.180121,35.2840909 L265.180121,35.2840909 L272.39603,35.2840909 C272.490727,34.6117424 272.77245,34.1122159 273.2412,33.7855114 C273.70995,33.4588068 274.318378,33.2954545 275.066484,33.2954545 C275.748302,33.2954545 276.307015,33.4469697 276.742621,33.75 C277.178227,34.0530303 277.39603,34.4886364 277.39603,35.0568182 L277.39603,35.0568182 L277.39603,35.1136364 C277.39603,35.530303 277.23031,35.8641098 276.898871,36.1150568 C276.567431,36.3660038 276.030026,36.5601326 275.286655,36.6974432 C274.543283,36.8347538 273.560802,36.9507576 272.339212,37.0454545 C271.212318,37.1306818 270.163549,37.3153409 269.192905,37.5994318 C268.222261,37.8835227 267.372355,38.2954545 266.643189,38.8352273 C265.914022,39.375 265.34584,40.0686553 264.938643,40.9161932 C264.531446,41.7637311 264.327848,42.7840909 264.327848,43.9772727 C264.327848,45.4261364 264.630878,46.6193182 265.236939,47.5568182 C265.842999,48.4943182 266.6787,49.1927083 267.744041,49.6519886 C268.809382,50.1112689 270.038075,50.3409091 271.430121,50.3409091 Z M273.986939,45.3977273 C273.32406,45.3977273 272.779552,45.2367424 272.353416,44.9147727 C271.92728,44.592803 271.714212,44.1287879 271.714212,43.5227273 C271.714212,43.1439394 271.806541,42.8006629 271.9912,42.4928977 C272.175859,42.1851326 272.45995,41.9247159 272.843473,41.7116477 C273.226996,41.4985795 273.721787,41.344697 274.327848,41.25 C274.640348,41.2026515 274.941011,41.1505682 275.229837,41.09375 C275.518662,41.0369318 275.793283,40.9753788 276.0537,40.9090909 C276.314117,40.842803 276.560329,40.7717803 276.792337,40.6960227 C277.024344,40.6202652 277.244515,40.5397727 277.452848,40.4545455 L277.452848,40.4545455 L277.452848,42.2727273 C277.452848,42.9356061 277.287128,43.499053 276.955689,43.9630682 C276.624249,44.4270833 276.195746,44.782197 275.670177,45.0284091 C275.144609,45.2746212 274.58353,45.3977273 273.986939,45.3977273 Z M298.833813,50.3977273 C300.992904,50.3977273 302.851332,50.0094697 304.409097,49.2329545 C305.966862,48.4564394 307.171881,47.3555871 308.024154,45.9303977 C308.876426,44.5052083 309.316767,42.8314394 309.345176,40.9090909 L309.345176,40.9090909 L302.072449,40.9090909 C302.015631,41.6666667 301.847544,42.3082386 301.568188,42.8338068 C301.288832,43.359375 300.926616,43.7571023 300.48154,44.0269886 C300.036464,44.296875 299.5251,44.4318182 298.947449,44.4318182 C298.265631,44.4318182 297.66904,44.235322 297.157676,43.8423295 C296.646313,43.4493371 296.248585,42.8574811 295.964494,42.0667614 C295.680404,41.2760417 295.538358,40.2840909 295.538358,39.0909091 C295.538358,37.8977273 295.680404,36.9057765 295.964494,36.1150568 C296.248585,35.3243371 296.646313,34.7324811 297.157676,34.3394886 C297.66904,33.9464962 298.265631,33.75 298.947449,33.75 C299.818661,33.75 300.531256,34.0506629 301.085233,34.6519886 C301.63921,35.2533144 301.968282,36.1268939 302.072449,37.2727273 L302.072449,37.2727273 L309.345176,37.2727273 C309.335707,35.3787879 308.9001,33.7286932 308.038358,32.3224432 C307.176616,30.9161932 305.962127,29.827178 304.394892,29.0553977 C302.827657,28.2836174 300.973964,27.8977273 298.833813,27.8977273 C296.466388,27.8977273 294.439873,28.3688447 292.754267,29.3110795 C291.068661,30.2533144 289.776047,31.5696023 288.876426,33.2599432 C287.976805,34.9502841 287.526994,36.9128788 287.526994,39.1477273 C287.526994,41.3825758 287.976805,43.3451705 288.876426,45.0355114 C289.776047,46.7258523 291.068661,48.0421402 292.754267,48.984375 C294.439873,49.9266098 296.466388,50.3977273 298.833813,50.3977273 Z M316.990346,49.7514205 C318.211936,50.2201705 319.722353,50.407197 321.521596,50.3125 C322.411747,50.2651515 323.18116,50.1657197 323.829834,50.0142045 C324.478508,49.8626894 324.978035,49.7348485 325.328414,49.6306818 L325.328414,49.6306818 L324.19205,44.1193182 C324.040535,44.157197 323.80616,44.2045455 323.488925,44.2613636 C323.17169,44.3181818 322.894702,44.3465909 322.657959,44.3465909 C322.31705,44.3465909 322.037694,44.296875 321.819891,44.1974432 C321.602088,44.0980114 321.441103,43.9464962 321.336936,43.7428977 C321.23277,43.5392992 321.180686,43.2859848 321.180686,42.9829545 L321.180686,42.9829545 L321.18,33.864 L324.930686,33.8636364 L324.930686,28.1818182 L321.18,28.182 L321.180686,22.9545455 L313.339777,22.9545455 L313.339,28.182 L310.555686,28.1818182 L310.555686,33.8636364 L313.339,33.864 L313.339777,43.7215909 C313.322295,45.1289336 313.575119,46.3184172 314.09825,47.2900417 L314.234664,47.5284091 C314.850194,48.5416667 315.768755,49.2826705 316.990346,49.7514205 Z M348.544889,50.3977273 C350.675571,50.3977273 352.545836,50.0710227 354.155684,49.4176136 C355.765533,48.7642045 357.117332,47.9000947 358.211082,46.8252841 C359.304832,45.7504735 360.150002,44.5762311 360.746593,43.3025568 C361.343184,42.0288826 361.688828,40.7765152 361.783525,39.5454545 L361.783525,39.5454545 L353.772161,39.4886364 C353.677464,40.1136364 353.495173,40.6747159 353.225286,41.171875 C352.9554,41.6690341 352.607389,42.092803 352.181252,42.4431818 C351.755116,42.7935606 351.253222,43.0610795 350.675571,43.2457386 C350.097919,43.4303977 349.44451,43.5227273 348.715343,43.5227273 C347.436934,43.5227273 346.343184,43.2220644 345.434093,42.6207386 C344.525002,42.0194129 343.831347,41.1197917 343.353127,39.921875 C342.874908,38.7239583 342.635798,37.2348485 342.635798,35.4545455 C342.635798,33.7689394 342.870173,32.3248106 343.338923,31.1221591 C343.807673,29.9195076 344.498961,28.9962121 345.412786,28.3522727 C346.326612,27.7083333 347.446404,27.3863636 348.772161,27.3863636 C349.529737,27.3863636 350.206821,27.4928977 350.803411,27.7059659 C351.400002,27.9190341 351.908999,28.2220644 352.3304,28.6150568 C352.751802,29.0080492 353.083241,29.4744318 353.324718,30.0142045 C353.566196,30.5539773 353.715343,31.155303 353.772161,31.8181818 L353.772161,31.8181818 L361.783525,31.8181818 C361.63201,30.0094697 361.201139,28.4043561 360.490911,27.0028409 C359.780684,25.6013258 358.843184,24.4199811 357.678411,23.4588068 C356.513639,22.4976326 355.159472,21.7660985 353.615911,21.2642045 C352.072351,20.7623106 350.38201,20.5113636 348.544889,20.5113636 C345.931252,20.5113636 343.563828,21.0819129 341.442616,22.2230114 C339.321404,23.3641098 337.635798,25.0449811 336.385798,27.265625 C335.135798,29.4862689 334.510798,32.2159091 334.510798,35.4545455 C334.510798,38.6742424 335.123961,41.3967803 336.350286,43.6221591 C337.576612,45.8475379 339.248014,47.5331439 341.364491,48.6789773 C343.480968,49.8248106 345.874434,50.3977273 348.544889,50.3977273 Z M375.323581,50.3977273 C377.691005,50.3977273 379.71752,49.9266098 381.403126,48.984375 C383.088732,48.0421402 384.381346,46.7258523 385.280967,45.0355114 C386.180588,43.3451705 386.630399,41.3825758 386.630399,39.1477273 C386.630399,36.9128788 386.180588,34.9502841 385.280967,33.2599432 C384.381346,31.5696023 383.088732,30.2533144 381.403126,29.3110795 C379.71752,28.3688447 377.691005,27.8977273 375.323581,27.8977273 C372.956156,27.8977273 370.929641,28.3688447 369.244035,29.3110795 C367.558429,30.2533144 366.265816,31.5696023 365.366194,33.2599432 C364.466573,34.9502841 364.016763,36.9128788 364.016763,39.1477273 C364.016763,41.3825758 364.466573,43.3451705 365.366194,45.0355114 C366.265816,46.7258523 367.558429,48.0421402 369.244035,48.984375 C370.929641,49.9266098 372.956156,50.3977273 375.323581,50.3977273 Z M375.380399,44.6022727 C374.679641,44.6022727 374.078316,44.3797348 373.576422,43.9346591 C373.074528,43.4895833 372.691005,42.8551136 372.425853,42.03125 C372.160702,41.2073864 372.028126,40.2272727 372.028126,39.0909091 C372.028126,37.9450758 372.160702,36.9625947 372.425853,36.1434659 C372.691005,35.3243371 373.074528,34.6922348 373.576422,34.2471591 C374.078316,33.8020833 374.679641,33.5795455 375.380399,33.5795455 C376.043278,33.5795455 376.616194,33.8020833 377.099149,34.2471591 C377.582103,34.6922348 377.956156,35.3243371 378.221308,36.1434659 C378.486459,36.9625947 378.619035,37.9450758 378.619035,39.0909091 C378.619035,40.2272727 378.486459,41.2073864 378.221308,42.03125 C377.956156,42.8551136 377.582103,43.4895833 377.099149,43.9346591 C376.616194,44.3797348 376.043278,44.6022727 375.380399,44.6022727 Z M396.988636,50 L396.988636,37.2727273 C396.988636,36.6382576 397.09517,36.0913826 397.308239,35.6321023 C397.521307,35.172822 397.82197,34.8200758 398.210227,34.5738636 C398.598485,34.3276515 399.0625,34.2045455 399.602273,34.2045455 C400.416667,34.2045455 401.065341,34.4767992 401.548295,35.0213068 C402.03125,35.5658144 402.272727,36.3162879 402.272727,37.2727273 L402.272727,37.2727273 L402.272727,50 L409.772727,50 L409.772727,37.2727273 C409.772727,36.3162879 410.007102,35.5658144 410.475852,35.0213068 C410.944602,34.4767992 411.581439,34.2045455 412.386364,34.2045455 C413.200758,34.2045455 413.849432,34.4767992 414.332386,35.0213068 C414.815341,35.5658144 415.056818,36.3162879 415.056818,37.2727273 L415.056818,37.2727273 L415.056818,50 L422.897727,50 L422.897727,35.2840909 C422.897727,33.0492424 422.246686,31.2594697 420.944602,29.9147727 C419.642519,28.5700758 417.945076,27.8977273 415.852273,27.8977273 C414.232955,27.8977273 412.82197,28.3025568 411.619318,29.1122159 C410.416667,29.921875 409.630682,30.9943182 409.261364,32.3295455 L409.261364,32.3295455 L409.034091,32.3295455 C408.806818,30.9943182 408.139205,29.921875 407.03125,29.1122159 C405.923295,28.3025568 404.602273,27.8977273 403.068182,27.8977273 C401.55303,27.8977273 400.246212,28.2954545 399.147727,29.0909091 C398.049242,29.8863636 397.272727,30.9659091 396.818182,32.3295455 L396.818182,32.3295455 L396.590909,32.3295455 L396.590909,28.1818182 L389.147727,28.1818182 L389.147727,50 L396.988636,50 Z M433.937783,58.1818182 L433.937783,46.4204545 L434.051419,46.4204545 C434.35445,47.1590909 434.787688,47.8196023 435.351135,48.4019886 C435.914582,48.984375 436.5964,49.4436553 437.39659,49.7798295 C438.196779,50.1160038 439.108237,50.2840909 440.130965,50.2840909 C441.683995,50.2840909 443.111552,49.8768939 444.413635,49.0625 C445.715719,48.2481061 446.757385,47.0123106 447.538635,45.3551136 C448.319885,43.6979167 448.71051,41.6098485 448.71051,39.0909091 C448.71051,36.4583333 448.300946,34.3181818 447.481817,32.6704545 C446.662688,31.0227273 445.602082,29.8153409 444.299999,29.0482955 C442.997916,28.28125 441.627177,27.8977273 440.187783,27.8977273 C439.108237,27.8977273 438.161268,28.0847538 437.346874,28.4588068 C436.53248,28.8328598 435.850662,29.3300189 435.301419,29.9502841 C434.752177,30.5705492 434.33551,31.25 434.051419,31.9886364 L434.051419,31.9886364 L433.880965,31.9886364 L433.880965,28.1818182 L426.096874,28.1818182 L426.096874,58.1818182 L433.937783,58.1818182 Z M437.233237,44.2613636 C436.513541,44.2613636 435.895643,44.0506629 435.379544,43.6292614 C434.863446,43.2078598 434.465719,42.6112689 434.186362,41.8394886 C433.907006,41.0677083 433.767328,40.1515152 433.767328,39.0909091 C433.767328,38.0113636 433.907006,37.0857008 434.186362,36.3139205 C434.465719,35.5421402 434.863446,34.9502841 435.379544,34.5383523 C435.895643,34.1264205 436.513541,33.9204545 437.233237,33.9204545 C437.952934,33.9204545 438.566097,34.1264205 439.072726,34.5383523 C439.579355,34.9502841 439.967612,35.5421402 440.237499,36.3139205 C440.507385,37.0857008 440.642328,38.0113636 440.642328,39.0909091 C440.642328,40.1704545 440.507385,41.0961174 440.237499,41.8678977 C439.967612,42.639678 439.579355,43.2315341 439.072726,43.6434659 C438.566097,44.0553977 437.952934,44.2613636 437.233237,44.2613636 Z M461.852839,50.3977273 C464.220263,50.3977273 466.246778,49.9266098 467.932384,48.984375 C469.61799,48.0421402 470.910604,46.7258523 471.810225,45.0355114 C472.709846,43.3451705 473.159657,41.3825758 473.159657,39.1477273 C473.159657,36.9128788 472.709846,34.9502841 471.810225,33.2599432 C470.910604,31.5696023 469.61799,30.2533144 467.932384,29.3110795 C466.246778,28.3688447 464.220263,27.8977273 461.852839,27.8977273 C459.485414,27.8977273 457.458899,28.3688447 455.773293,29.3110795 C454.087687,30.2533144 452.795073,31.5696023 451.895452,33.2599432 C450.995831,34.9502841 450.54602,36.9128788 450.54602,39.1477273 C450.54602,41.3825758 450.995831,43.3451705 451.895452,45.0355114 C452.795073,46.7258523 454.087687,48.0421402 455.773293,48.984375 C457.458899,49.9266098 459.485414,50.3977273 461.852839,50.3977273 Z M461.909657,44.6022727 C461.208899,44.6022727 460.607573,44.3797348 460.105679,43.9346591 C459.603786,43.4895833 459.220263,42.8551136 458.955111,42.03125 C458.68996,41.2073864 458.557384,40.2272727 458.557384,39.0909091 C458.557384,37.9450758 458.68996,36.9625947 458.955111,36.1434659 C459.220263,35.3243371 459.603786,34.6922348 460.105679,34.2471591 C460.607573,33.8020833 461.208899,33.5795455 461.909657,33.5795455 C462.572536,33.5795455 463.145452,33.8020833 463.628407,34.2471591 C464.111361,34.6922348 464.485414,35.3243371 464.750566,36.1434659 C465.015717,36.9625947 465.148293,37.9450758 465.148293,39.0909091 C465.148293,40.2272727 465.015717,41.2073864 464.750566,42.03125 C464.485414,42.8551136 464.111361,43.4895833 463.628407,43.9346591 C463.145452,44.3797348 462.572536,44.6022727 461.909657,44.6022727 Z M483.517894,50 L483.517894,37.7272727 C483.527364,37.0075758 483.65994,36.389678 483.915622,35.8735795 C484.171303,35.3574811 484.538254,34.9597538 485.016474,34.6803977 C485.494693,34.4010417 486.055773,34.2613636 486.699712,34.2613636 C487.684561,34.2613636 488.453974,34.5691288 489.007951,35.1846591 C489.561928,35.8001894 489.834182,36.6477273 489.824712,37.7272727 L489.824712,37.7272727 L489.824712,50 L497.665832,50 L497.665832,36.0795455 C497.675091,34.4981061 497.364959,33.0918561 496.735224,31.8607955 C496.105489,30.6297348 495.220072,29.6614583 494.078974,28.9559659 C492.937875,28.2504735 491.595546,27.8977273 490.051985,27.8977273 C488.451606,27.8977273 487.052459,28.2907197 485.854542,29.0767045 C484.656625,29.8626894 483.820925,30.9469697 483.34744,32.3295455 L483.34744,32.3295455 L483.120167,32.3295455 L483.120167,28.1818182 L475.676985,28.1818182 L475.676985,50 L483.517894,50 Z M511.319314,50.3977273 C513.336359,50.3977273 515.10009,50.0923295 516.610507,49.4815341 C518.120923,48.8707386 519.335412,48.0089962 520.253973,46.8963068 C521.172533,45.7836174 521.75492,44.469697 522.001132,42.9545455 L522.001132,42.9545455 L514.842041,42.9545455 C514.690526,43.3617424 514.453783,43.7097538 514.131814,43.9985795 C513.809844,44.2874053 513.423954,44.5075758 512.974143,44.6590909 C512.524332,44.8106061 512.029541,44.8863636 511.489768,44.8863636 C510.713253,44.8863636 510.050374,44.7301136 509.501132,44.4176136 C508.951889,44.1051136 508.530488,43.6742424 508.236927,43.125 C507.943367,42.5757576 507.796586,41.9507576 507.796586,41.25 L507.796586,41.25 L507.796,40.91 L522.001132,40.9090909 L522.001132,39.0909091 C522.001132,37.3579545 521.74545,35.8001894 521.234086,34.4176136 C520.722723,33.0350379 519.993556,31.858428 519.046586,30.8877841 C518.099617,29.9171402 516.958518,29.1761364 515.623291,28.6647727 C514.288064,28.1534091 512.796586,27.8977273 511.148859,27.8977273 C508.895071,27.8977273 506.939579,28.3664773 505.282382,29.3039773 C503.625185,30.2414773 502.342041,31.5530303 501.43295,33.2386364 C500.523859,34.9242424 500.069314,36.8939394 500.069314,39.1477273 C500.069314,41.4962121 500.521492,43.5108902 501.425848,45.1917614 C502.330204,46.8726326 503.622817,48.1605114 505.303689,49.0553977 C506.98456,49.9502841 508.989768,50.3977273 511.319314,50.3977273 Z M507.796586,36.5909091 C507.815526,35.9564394 507.983613,35.4024621 508.300848,34.9289773 C508.618082,34.4554924 509.041851,34.0838068 509.572154,33.8139205 C510.102457,33.5440341 510.684844,33.4090909 511.319314,33.4090909 C511.972723,33.4090909 512.557476,33.5440341 513.073575,33.8139205 C513.589673,34.0838068 514.001605,34.4578598 514.30937,34.9360795 C514.617136,35.4142992 514.775753,35.9659091 514.785223,36.5909091 L514.785223,36.5909091 L507.796586,36.5909091 Z M532.359369,50 L532.359369,37.7272727 C532.368839,37.0075758 532.501415,36.389678 532.757096,35.8735795 C533.012778,35.3574811 533.379729,34.9597538 533.857949,34.6803977 C534.336168,34.4010417 534.897248,34.2613636 535.541187,34.2613636 C536.526036,34.2613636 537.295449,34.5691288 537.849426,35.1846591 C538.403403,35.8001894 538.675657,36.6477273 538.666187,37.7272727 L538.666187,37.7272727 L538.666187,50 L546.507307,50 L546.507307,36.0795455 C546.516566,34.4981061 546.206434,33.0918561 545.576699,31.8607955 C544.946964,30.6297348 544.061547,29.6614583 542.920449,28.9559659 C541.77935,28.2504735 540.437021,27.8977273 538.89346,27.8977273 C537.293081,27.8977273 535.893934,28.2907197 534.696017,29.0767045 C533.4981,29.8626894 532.6624,30.9469697 532.188915,32.3295455 L532.188915,32.3295455 L531.961642,32.3295455 L531.961642,28.1818182 L524.51846,28.1818182 L524.51846,50 L532.359369,50 Z M554.777266,49.7514205 C555.998857,50.2201705 557.509273,50.407197 559.308516,50.3125 C560.198667,50.2651515 560.96808,50.1657197 561.616754,50.0142045 C562.265429,49.8626894 562.764955,49.7348485 563.115334,49.6306818 L563.115334,49.6306818 L561.97897,44.1193182 C561.827455,44.157197 561.59308,44.2045455 561.275845,44.2613636 C560.95861,44.3181818 560.681622,44.3465909 560.444879,44.3465909 C560.10397,44.3465909 559.824614,44.296875 559.606811,44.1974432 C559.389008,44.0980114 559.228023,43.9464962 559.123857,43.7428977 C559.01969,43.5392992 558.967607,43.2859848 558.967607,42.9829545 L558.967607,42.9829545 L558.967,33.864 L562.717607,33.8636364 L562.717607,28.1818182 L558.967,28.182 L558.967607,22.9545455 L551.126698,22.9545455 L551.126,28.182 L548.342607,28.1818182 L548.342607,33.8636364 L551.126,33.864 L551.126698,43.7215909 C551.109215,45.1289336 551.362039,46.3184172 551.88517,47.2900417 L552.021584,47.5284091 C552.637114,48.5416667 553.555675,49.2826705 554.777266,49.7514205 Z M575.007662,50.3977273 C577.024708,50.3977273 578.821583,50.0875947 580.398287,49.4673295 C581.974992,48.8470644 583.220257,47.9663826 584.134083,46.8252841 C585.047909,45.6841856 585.509556,44.3371212 585.519026,42.7840909 C585.509556,41.1742424 584.957946,39.8887311 583.864196,38.9275568 C582.770446,37.9663826 581.106147,37.282197 578.871299,36.875 L578.871299,36.875 L574.439481,36.0795455 C573.606147,35.9280303 573.045068,35.7149621 572.756242,35.4403409 C572.467416,35.1657197 572.327738,34.8674242 572.337208,34.5454545 C572.327738,34.0909091 572.564481,33.7405303 573.047435,33.4943182 C573.53039,33.2481061 574.108041,33.125 574.78039,33.125 C575.301223,33.125 575.777075,33.2125947 576.207946,33.3877841 C576.638818,33.5629735 576.991564,33.811553 577.266185,34.1335227 C577.540806,34.4554924 577.697056,34.8390152 577.734935,35.2840909 L577.734935,35.2840909 L584.950844,35.2840909 C584.856147,32.9734848 583.89734,31.1647727 582.074424,29.8579545 C580.251507,28.5511364 577.763344,27.8977273 574.609935,27.8977273 C572.536071,27.8977273 570.743931,28.1747159 569.233515,28.7286932 C567.723098,29.2826705 566.56306,30.0875947 565.753401,31.1434659 C564.943742,32.1993371 564.543647,33.4848485 564.553117,35 C564.543647,36.7140152 565.09289,38.1155303 566.200844,39.2045455 C567.308799,40.2935606 568.975465,41.032197 571.200844,41.4204545 L571.200844,41.4204545 L575.064481,42.1022727 C575.916753,42.2537879 576.544121,42.4526515 576.946583,42.6988636 C577.349045,42.9450758 577.555011,43.2765152 577.564481,43.6931818 C577.555011,44.1477273 577.315901,44.4981061 576.847151,44.7443182 C576.378401,44.9905303 575.784177,45.1136364 575.064481,45.1136364 C574.174329,45.1136364 573.43806,44.9266098 572.855674,44.5525568 C572.273287,44.1785038 571.930011,43.6458333 571.825844,42.9545455 L571.825844,42.9545455 L564.041753,42.9545455 C564.259556,45.1893939 565.308325,46.9886364 567.18806,48.3522727 C569.067795,49.7159091 571.674329,50.3977273 575.007662,50.3977273 Z" id="ReactComponents" fill="#FFFFFF" fill-rule="nonzero"></path>
        <path id="Line" d="M402,144 L402,176 L414,176 L399.5,205 L385,176 L397,176 L397,144 L402,144 Z" fill="#FFFFFF" fill-rule="nonzero"></path>
        <path d="M349.040352,426.198864 C349.840541,426.198864 350.579177,426.080492 351.256261,425.84375 C351.933344,425.607008 352.535854,425.272017 353.063789,424.838778 C353.591725,424.40554 354.024963,423.889441 354.363505,423.290483 C354.702047,422.691525 354.930503,422.034564 355.048874,421.319602 L355.048874,421.319602 L352.832965,421.3125 C352.743003,421.776515 352.580835,422.187263 352.34646,422.544744 C352.112085,422.902225 351.82681,423.204072 351.490636,423.450284 C351.154462,423.696496 350.779225,423.882339 350.364926,424.007812 C349.950626,424.133286 349.513837,424.196023 349.054556,424.196023 C348.225958,424.196023 347.480219,423.987689 346.81734,423.571023 C346.154462,423.154356 345.632444,422.538826 345.251289,421.724432 C344.870134,420.910038 344.679556,419.910985 344.679556,418.727273 C344.679556,417.55303 344.870134,416.558712 345.251289,415.744318 C345.632444,414.929924 346.153278,414.312027 346.813789,413.890625 C347.474301,413.469223 348.22359,413.258523 349.061658,413.258523 C349.525674,413.258523 349.964831,413.322443 350.37913,413.450284 C350.793429,413.578125 351.168666,413.767519 351.50484,414.018466 C351.841015,414.269413 352.125105,414.574811 352.357113,414.934659 C352.589121,415.294508 352.747738,415.711174 352.832965,416.184659 L352.832965,416.184659 L355.048874,416.184659 C354.925768,415.403409 354.689026,414.70857 354.338647,414.100142 C353.988268,413.491714 353.54556,412.975616 353.010522,412.551847 C352.475484,412.128078 351.872975,411.806108 351.202994,411.585938 C350.533013,411.365767 349.812132,411.255682 349.040352,411.255682 C347.785617,411.255682 346.665825,411.555161 345.680977,412.154119 C344.696128,412.753078 343.919613,413.610085 343.351431,414.725142 C342.783249,415.840199 342.499158,417.174242 342.499158,418.727273 C342.499158,420.275568 342.782066,421.608428 343.34788,422.725852 C343.913694,423.843277 344.689026,424.701468 345.673874,425.300426 C346.658723,425.899384 347.780882,426.198864 349.040352,426.198864 Z M361.770617,426.22017 C362.793344,426.22017 363.685863,425.985795 364.448174,425.517045 C365.210484,425.048295 365.80234,424.392519 366.223742,423.549716 C366.645143,422.706913 366.855844,421.722064 366.855844,420.59517 C366.855844,419.463542 366.645143,418.473958 366.223742,417.62642 C365.80234,416.778883 365.210484,416.120739 364.448174,415.651989 C363.685863,415.183239 362.793344,414.948864 361.770617,414.948864 C360.74789,414.948864 359.855371,415.183239 359.09306,415.651989 C358.330749,416.120739 357.738893,416.778883 357.317492,417.62642 C356.89609,418.473958 356.68539,419.463542 356.68539,420.59517 C356.68539,421.722064 356.89609,422.706913 357.317492,423.549716 C357.738893,424.392519 358.330749,425.048295 359.09306,425.517045 C359.855371,425.985795 360.74789,426.22017 361.770617,426.22017 Z M361.777719,424.4375 C361.110105,424.4375 360.557312,424.262311 360.119338,423.911932 C359.681365,423.561553 359.357028,423.09517 359.146327,422.512784 C358.935626,421.930398 358.830276,421.288826 358.830276,420.588068 C358.830276,419.892045 358.935626,419.251657 359.146327,418.666903 C359.357028,418.08215 359.681365,417.612216 360.119338,417.257102 C360.557312,416.901989 361.110105,416.724432 361.777719,416.724432 C362.440598,416.724432 362.98984,416.901989 363.425446,417.257102 C363.861052,417.612216 364.184206,418.08215 364.394907,418.666903 C364.605607,419.251657 364.710958,419.892045 364.710958,420.588068 C364.710958,421.288826 364.605607,421.930398 364.394907,422.512784 C364.184206,423.09517 363.861052,423.561553 363.425446,423.911932 C362.98984,424.262311 362.440598,424.4375 361.777719,424.4375 Z M371.012242,426 L371.012242,419.274148 C371.012242,418.781723 371.115225,418.348485 371.321191,417.974432 C371.527157,417.600379 371.799411,417.308002 372.137953,417.097301 C372.476494,416.8866 372.846996,416.78125 373.249458,416.78125 C373.841314,416.78125 374.321902,416.961174 374.69122,417.321023 C375.060538,417.680871 375.245197,418.156723 375.245197,418.74858 L375.245197,418.74858 L375.245197,426 L377.361674,426 L377.361674,419.046875 C377.361674,418.383996 377.553436,417.840672 377.936958,417.416903 C378.320481,416.993134 378.857886,416.78125 379.549174,416.78125 C380.107886,416.78125 380.588474,416.94697 380.990936,417.278409 C381.393398,417.609848 381.594629,418.144886 381.594629,418.883523 L381.594629,418.883523 L381.594629,426 L383.718208,426 L383.718208,418.684659 C383.718208,417.434659 383.404525,416.499527 382.777157,415.879261 C382.14979,415.258996 381.341314,414.948864 380.351731,414.948864 C379.565746,414.948864 378.888663,415.122869 378.320481,415.470881 C377.752299,415.818892 377.338,416.284091 377.077583,416.866477 L377.077583,416.866477 L376.963947,416.866477 C376.727205,416.269886 376.361438,415.801136 375.866646,415.460227 C375.371854,415.119318 374.759875,414.948864 374.030708,414.948864 C373.311011,414.948864 372.693114,415.118134 372.177015,415.456676 C371.660917,415.795218 371.289231,416.265152 371.061958,416.866477 L371.061958,416.866477 L370.927015,416.866477 L370.927015,415.090909 L368.888663,415.090909 L368.888663,426 L371.012242,426 Z M388.350469,430.090909 L388.350469,424.302557 L388.47831,424.302557 C388.606151,424.534564 388.788443,424.799716 389.025185,425.098011 C389.261928,425.396307 389.589816,425.656723 390.00885,425.879261 C390.427884,426.101799 390.968841,426.213068 391.631719,426.213068 C392.512401,426.213068 393.296019,425.986979 393.982572,425.534801 C394.669125,425.082623 395.208898,424.436316 395.60189,423.595881 C395.994882,422.755445 396.191379,421.745739 396.191379,420.566761 C396.191379,419.387784 395.993699,418.379261 395.598339,417.541193 C395.202979,416.703125 394.659655,416.061553 393.968367,415.616477 C393.277079,415.171402 392.491094,414.948864 391.610413,414.948864 C390.933329,414.948864 390.388822,415.061316 389.97689,415.286222 C389.564958,415.511127 389.242988,415.772727 389.010981,416.071023 C388.778973,416.369318 388.601416,416.632102 388.47831,416.859375 L388.47831,416.859375 L388.300754,416.859375 L388.300754,415.090909 L386.22689,415.090909 L386.22689,430.090909 L388.350469,430.090909 Z M391.155867,424.401989 C390.545072,424.401989 390.028973,424.23982 389.607572,423.915483 C389.18617,423.591146 388.864201,423.140152 388.641663,422.5625 C388.419125,421.984848 388.307856,421.3125 388.307856,420.545455 C388.307856,419.787879 388.416757,419.125 388.63456,418.556818 C388.852363,417.988636 389.173149,417.545928 389.596918,417.228693 C390.020687,416.911458 390.540337,416.752841 391.155867,416.752841 C391.795072,416.752841 392.328926,416.918561 392.75743,417.25 C393.185933,417.581439 393.507903,418.033617 393.723339,418.606534 C393.938774,419.179451 394.046492,419.825758 394.046492,420.545455 C394.046492,421.274621 393.936407,421.930398 393.716237,422.512784 C393.496066,423.09517 393.172913,423.555634 392.746776,423.894176 C392.32064,424.232718 391.790337,424.401989 391.155867,424.401989 Z M402.830734,426.22017 C403.853461,426.22017 404.74598,425.985795 405.508291,425.517045 C406.270601,425.048295 406.862457,424.392519 407.283859,423.549716 C407.70526,422.706913 407.915961,421.722064 407.915961,420.59517 C407.915961,419.463542 407.70526,418.473958 407.283859,417.62642 C406.862457,416.778883 406.270601,416.120739 405.508291,415.651989 C404.74598,415.183239 403.853461,414.948864 402.830734,414.948864 C401.808007,414.948864 400.915488,415.183239 400.153177,415.651989 C399.390867,416.120739 398.79901,416.778883 398.377609,417.62642 C397.956207,418.473958 397.745507,419.463542 397.745507,420.59517 C397.745507,421.722064 397.956207,422.706913 398.377609,423.549716 C398.79901,424.392519 399.390867,425.048295 400.153177,425.517045 C400.915488,425.985795 401.808007,426.22017 402.830734,426.22017 Z M402.837836,424.4375 C402.170223,424.4375 401.617429,424.262311 401.179456,423.911932 C400.741482,423.561553 400.417145,423.09517 400.206444,422.512784 C399.995743,421.930398 399.890393,421.288826 399.890393,420.588068 C399.890393,419.892045 399.995743,419.251657 400.206444,418.666903 C400.417145,418.08215 400.741482,417.612216 401.179456,417.257102 C401.617429,416.901989 402.170223,416.724432 402.837836,416.724432 C403.500715,416.724432 404.049957,416.901989 404.485563,417.257102 C404.92117,417.612216 405.244323,418.08215 405.455024,418.666903 C405.665724,419.251657 405.771075,419.892045 405.771075,420.588068 C405.771075,421.288826 405.665724,421.930398 405.455024,422.512784 C405.244323,423.09517 404.92117,423.561553 404.485563,423.911932 C404.049957,424.262311 403.500715,424.4375 402.837836,424.4375 Z M413.876337,426.22017 C414.757019,426.22017 415.53235,426.075758 416.202331,425.786932 C416.872312,425.498106 417.395513,425.099195 417.771933,424.590199 C418.148354,424.081203 418.336564,423.5 418.336564,422.846591 C418.336564,422.074811 418.090352,421.447443 417.597928,420.964489 C417.105504,420.481534 416.357397,420.124053 415.35361,419.892045 L415.35361,419.892045 L413.620655,419.494318 C413.019329,419.352273 412.583723,419.169981 412.313837,418.947443 C412.043951,418.724905 411.909007,418.431345 411.909007,418.066761 C411.909007,417.64536 412.110238,417.3009 412.512701,417.033381 C412.915163,416.765862 413.417057,416.632102 414.018382,416.632102 C414.458723,416.632102 414.825674,416.703125 415.119235,416.84517 C415.412795,416.987216 415.645987,417.169508 415.818808,417.392045 C415.99163,417.614583 416.118288,417.848958 416.19878,418.09517 L416.19878,418.09517 L418.123496,417.754261 C417.905693,416.901989 417.45825,416.221354 416.781166,415.712358 C416.104083,415.203362 415.176053,414.948864 413.997076,414.948864 C413.177947,414.948864 412.451147,415.084991 411.816678,415.357244 C411.182208,415.629498 410.685049,416.007102 410.325201,416.490057 C409.965352,416.973011 409.785428,417.536458 409.785428,418.180398 C409.785428,418.956913 410.028089,419.598485 410.513411,420.105114 C410.998733,420.611742 411.75039,420.981061 412.768382,421.213068 L412.768382,421.213068 L414.614973,421.617898 C415.135807,421.736269 415.52288,421.911458 415.776195,422.143466 C416.029509,422.375473 416.156166,422.661932 416.156166,423.002841 C416.156166,423.424242 415.947833,423.78054 415.531166,424.071733 C415.1145,424.362926 414.558155,424.508523 413.862132,424.508523 C413.222928,424.508523 412.704462,424.372396 412.306735,424.100142 C411.909007,423.827888 411.646223,423.424242 411.518382,422.889205 L411.518382,422.889205 L409.465826,423.201705 C409.641015,424.167614 410.1145,424.912169 410.88628,425.435369 C411.65806,425.95857 412.654746,426.22017 413.876337,426.22017 Z M421.404903,413.40767 C421.774222,413.40767 422.090273,413.283381 422.353057,413.034801 C422.615841,412.786222 422.747233,412.48911 422.747233,412.143466 C422.747233,411.793087 422.615841,411.493608 422.353057,411.245028 C422.090273,410.996449 421.774222,410.872159 421.404903,410.872159 C421.035585,410.872159 420.719534,410.996449 420.45675,411.245028 C420.193966,411.493608 420.062574,411.793087 420.062574,412.143466 C420.062574,412.48911 420.193966,412.786222 420.45675,413.034801 C420.719534,413.283381 421.035585,413.40767 421.404903,413.40767 Z M422.45604,426 L422.45604,415.090909 L420.33246,415.090909 L420.33246,426 L422.45604,426 Z M428.890855,426.142045 C429.231764,426.137311 429.515855,426.110085 429.743127,426.060369 C429.9704,426.010653 430.145589,425.962121 430.268695,425.914773 L430.268695,425.914773 L429.885173,424.160511 C429.81415,424.174716 429.714718,424.193655 429.586877,424.21733 C429.459036,424.241004 429.309889,424.252841 429.139434,424.252841 C428.907427,424.252841 428.693175,424.216146 428.496678,424.142756 C428.300182,424.069366 428.140381,423.929688 428.017275,423.723722 C427.894169,423.517756 427.832616,423.208807 427.832616,422.796875 L427.832616,422.796875 L427.832,416.796 L430.069832,416.795455 L430.069832,415.090909 L427.832,415.091 L427.832616,412.477273 L425.709036,412.477273 L425.709,415.091 L424.111025,415.090909 L424.111025,416.795455 L425.709,416.796 L425.709036,423.237216 C425.709036,423.813092 425.823228,424.303778 426.05161,424.709273 L426.15648,424.877841 C426.454775,425.313447 426.8454,425.635417 427.328355,425.84375 C427.811309,426.052083 428.332142,426.151515 428.890855,426.142045 Z M433.155211,413.40767 C433.524529,413.40767 433.84058,413.283381 434.103364,413.034801 C434.366148,412.786222 434.49754,412.48911 434.49754,412.143466 C434.49754,411.793087 434.366148,411.493608 434.103364,411.245028 C433.84058,410.996449 433.524529,410.872159 433.155211,410.872159 C432.785892,410.872159 432.469841,410.996449 432.207057,411.245028 C431.944273,411.493608 431.812881,411.793087 431.812881,412.143466 C431.812881,412.48911 431.944273,412.786222 432.207057,413.034801 C432.469841,413.283381 432.785892,413.40767 433.155211,413.40767 Z M434.206347,426 L434.206347,415.090909 L432.082767,415.090909 L432.082767,426 L434.206347,426 Z M441.32298,426.22017 C442.345707,426.22017 443.238226,425.985795 444.000537,425.517045 C444.762847,425.048295 445.354703,424.392519 445.776105,423.549716 C446.197506,422.706913 446.408207,421.722064 446.408207,420.59517 C446.408207,419.463542 446.197506,418.473958 445.776105,417.62642 C445.354703,416.778883 444.762847,416.120739 444.000537,415.651989 C443.238226,415.183239 442.345707,414.948864 441.32298,414.948864 C440.300253,414.948864 439.407734,415.183239 438.645423,415.651989 C437.883113,416.120739 437.291256,416.778883 436.869855,417.62642 C436.448453,418.473958 436.237753,419.463542 436.237753,420.59517 C436.237753,421.722064 436.448453,422.706913 436.869855,423.549716 C437.291256,424.392519 437.883113,425.048295 438.645423,425.517045 C439.407734,425.985795 440.300253,426.22017 441.32298,426.22017 Z M441.330082,424.4375 C440.662469,424.4375 440.109675,424.262311 439.671702,423.911932 C439.233728,423.561553 438.909391,423.09517 438.69869,422.512784 C438.487989,421.930398 438.382639,421.288826 438.382639,420.588068 C438.382639,419.892045 438.487989,419.251657 438.69869,418.666903 C438.909391,418.08215 439.233728,417.612216 439.671702,417.257102 C440.109675,416.901989 440.662469,416.724432 441.330082,416.724432 C441.992961,416.724432 442.542203,416.901989 442.977809,417.257102 C443.413416,417.612216 443.736569,418.08215 443.94727,418.666903 C444.15797,419.251657 444.263321,419.892045 444.263321,420.588068 C444.263321,421.288826 444.15797,421.930398 443.94727,422.512784 C443.736569,423.09517 443.413416,423.561553 442.977809,423.911932 C442.542203,424.262311 441.992961,424.4375 441.330082,424.4375 Z M450.564606,426 L450.564606,419.522727 C450.564606,418.945076 450.674691,418.451468 450.894861,418.041903 C451.115032,417.632339 451.415695,417.321023 451.79685,417.107955 C452.178005,416.894886 452.614795,416.788352 453.107219,416.788352 C453.826916,416.788352 454.392731,417.012074 454.804662,417.459517 C455.216594,417.90696 455.42256,418.526042 455.42256,419.316761 L455.42256,419.316761 L455.42256,426 L457.54614,426 L457.54614,419.06108 C457.54614,418.161458 457.392257,417.40625 457.084492,416.795455 C456.776727,416.184659 456.343488,415.724195 455.784776,415.414062 C455.226064,415.10393 454.575022,414.948864 453.831651,414.948864 C453.012522,414.948864 452.334255,415.124053 451.79685,415.474432 C451.259445,415.824811 450.865268,416.288826 450.614322,416.866477 L450.614322,416.866477 L450.479378,416.866477 L450.479378,415.090909 L448.441026,415.090909 L448.441026,426 L450.564606,426 Z" id="Composition" fill="#FFFFFF" fill-rule="nonzero"></path>
    </g>
</svg>